<?xml version="1.0" encoding="UTF-8" standalone="no"?>
<!-- Created with Inkscape (http://www.inkscape.org/) -->

<svg
   width="52.344379mm"
   height="128.24019mm"
   viewBox="0 0 52.34438 128.24019"
   version="1.1"
   id="svg1"
   xml:space="preserve"
   inkscape:export-filename="head.png"
   inkscape:export-xdpi="96"
   inkscape:export-ydpi="96"
   inkscape:version="1.3 (0e150ed6c4, 2023-07-21)"
   sodipodi:docname="piirustus.svg"
   xmlns:inkscape="http://www.inkscape.org/namespaces/inkscape"
   xmlns:sodipodi="http://sodipodi.sourceforge.net/DTD/sodipodi-0.dtd"
   xmlns="http://www.w3.org/2000/svg"
   xmlns:svg="http://www.w3.org/2000/svg"><sodipodi:namedview
     id="namedview1"
     pagecolor="#ffffff"
     bordercolor="#000000"
     borderopacity="0.25"
     inkscape:showpageshadow="2"
     inkscape:pageopacity="0.0"
     inkscape:pagecheckerboard="0"
     inkscape:deskcolor="#d1d1d1"
     inkscape:document-units="mm"
     inkscape:zoom="0.26124263"
     inkscape:cx="1190.4642"
     inkscape:cy="-5.7417887"
     inkscape:window-width="2560"
     inkscape:window-height="1369"
     inkscape:window-x="1912"
     inkscape:window-y="-8"
     inkscape:window-maximized="1"
     inkscape:current-layer="layer1" /><defs
     id="defs1" /><g
     inkscape:label="Taso 1"
     inkscape:groupmode="layer"
     id="layer1"
     transform="translate(277.40528,-26.25368)"><path
       style="fill:#668000;stroke:#000000;stroke-width:2.5;stroke-dasharray:none;stroke-opacity:1"
       d="m 73.279326,107.73534 -10.165789,2.74426 c -6.511493,1.75778 -9.26008,2.14335 -15.18307,2.15065 -4.73918,0.006 -5.54011,-0.0591 -7.67126,-0.62207 -4.96778,-1.31229 -8.03421,-3.4023 -10.71408,-7.30251 -2.19432,-3.19356 -2.68895,-6.136683 -1.42851,-8.499803 0.73211,-1.37259 1.42531,-3.67583 1.42531,-4.73579 0,-0.63263 -0.0105,-0.63493 -2.19901,-0.48048 -2.18812,0.15441 -2.20377,0.151 -3.16196,-0.6903 -1.43464,-1.25964 -2.11178,-3.26269 -2.16484,-6.4039 -0.0417,-2.46547 -0.0682,-2.56971 -0.82268,-3.23278 -0.4288,-0.37684 -0.92846,-0.68893 -1.11037,-0.69353 -0.53356,-0.0135 -0.45586,-5.797375 0.0883,-6.574309 0.23048,-0.329054 0.69757,-1.830883 1.03798,-3.337398 0.72731,-3.218808 1.9173,-6.322955 3.06142,-7.985873 0.44946,-0.653262 1.78956,-2.180605 2.97802,-3.394094 1.88596,-1.925696 2.5142,-2.375997 4.93894,-3.540076 5.10418,-2.450432 7.40381,-2.822206 19.17551,-3.100054 l 7.40155,-0.174699 1.52153,-0.768065 c 0.83684,-0.422435 2.51179,-1.700835 3.72212,-2.840887 3.81497,-3.59347 6.41447,-4.669976 11.17408,-4.627415 7.19019,0.0643 15.636,0.550358 17.19792,0.989752 9.835223,2.766812 16.456253,9.84194 20.324793,21.718721 1.83311,5.627853 3.65492,39.45735 -4.30261,39.82623 l -35.811321,1.66006 m 10.635168,-5.10604 c 0.45241,0 2.27009,-1.65003 2.56871,-2.33178 0.17126,-0.391013 1.38683,-1.693153 2.70125,-2.893643 3.54389,-3.23673 3.74517,-3.74636 4.01807,-10.17367 0.11924,-2.80836 0.35336,-5.55816 0.52027,-6.11064 0.44033,-1.45759 0.26725,-2.68452 -0.38968,-2.76229 -0.38075,-0.0451 -0.93731,0.47219 -1.98437,1.8443 -1.47802,1.93683 -6.47964,7.08189 -6.88446,7.08189 -0.12182,0 -0.38739,0.16589 -0.59014,0.36864 -1.69287,1.69287 -8.00079,5.10353 -13.21325,7.14434 -6.71959,2.63088 -9.12334,3.54993 -10.00382,3.82486 -5.57771,1.741653 -10.61046,2.673333 -14.53756,2.691223 -5.83208,0.0266 -9.66911,-0.6338 -12.98942,-2.235573 -1.75947,-0.84879 -1.84177,-0.84661 -1.84177,0.0488 0,1.403123 3.43515,5.925433 5.65671,7.446973 1.3919,0.95329 4.53122,2.03399 7.05738,2.42947 1.8934,0.29642 8.60887,0.2019 10.43695,-0.1469 0.43656,-0.0833 1.09141,-0.20792 1.45521,-0.27694 0.3638,-0.069 1.13771,-0.19725 1.71979,-0.28496 0.58208,-0.0877 2.1299,-0.44312 3.43958,-0.78983 1.30969,-0.34671 2.67891,-0.70694 3.04271,-0.80051 0.3638,-0.0936 2.09021,-0.58689 3.83646,-1.09624 1.74625,-0.50936 3.53219,-1.0202 3.96875,-1.13521 0.43656,-0.11501 1.39092,-0.43706 2.1208,-0.71566 1.49142,-0.56929 1.98024,-0.51795 1.98024,0.20799 0,0.64536 -0.8829,1.46536 -2.42867,2.25565 -0.68093,0.34813 -1.29719,0.72866 -1.36948,0.84563 z m -40.98454,-3.347903 c 0,-0.5652 -2.23635,-4.93816 -2.58479,-5.05431 -0.2811,-0.0937 -0.97952,1.44651 -1.38967,3.0646 -0.43577,1.71918 -0.0152,2.04824 2.71769,2.12659 0.69122,0.0198 1.25677,-0.0418 1.25677,-0.13688 z m 2.52783,-2.53236 c 0.0461,-1.22053 0.12125,-2.38104 0.16704,-2.5789 0.1257,-0.54317 -1.42894,-0.78782 -2.40318,-0.37818 -0.45147,0.18982 -0.82086,0.47354 -0.82086,0.63047 0,0.48003 1.35076,3.53065 1.91489,4.32466 0.76531,1.07719 1.04444,0.58886 1.14211,-1.99805 z m 5.01279,2.30385 c 2.5632,-0.32109 2.56988,-0.32541 2.39915,-1.55022 -0.47067,-3.37659 -0.90227,-4.39836 -1.85787,-4.39836 -1.27379,0 -2.76952,2.39313 -2.98568,4.77699 -0.14331,1.58049 -0.1367,1.60041 0.4881,1.46976 0.34837,-0.0728 1.2287,-0.20702 1.9563,-0.29817 z m -14.19617,-2.29833 c -0.01,-1.24613 -0.11188,-1.4841 -1.03337,-2.40559 -1.36421,-1.36421 -1.94222,-1.2493 -2.04885,0.40732 -0.0908,1.41117 0.53556,3.02869 1.228,3.17106 0.24199,0.0497 0.76059,0.11739 1.15246,0.1503 0.69153,0.0581 0.71216,0.0192 0.70176,-1.32309 z m 23.05972,0.59082 c 0.65484,-0.18028 1.5241,-0.50009 1.93169,-0.71069 0.92742,-0.47918 0.80784,-0.99608 -0.6821,-2.94865 -0.92924,-1.21777 -1.17621,-1.39214 -1.87372,-1.32292 -0.65262,0.0648 -0.91755,0.30317 -1.41172,1.27036 -0.33458,0.65484 -0.68426,1.92584 -0.77707,2.82444 l -0.16874,1.63381 0.89552,-0.20928 c 0.49253,-0.1151 1.43129,-0.35679 2.08614,-0.53707 z m 9.87626,-3.74546 c 1.18996,-0.57854 1.26645,-0.67528 1.11857,-1.41466 -0.18702,-0.93511 -0.6257,-1.43193 -1.39522,-1.58012 -0.84719,-0.16316 -1.57048,0.93405 -2.04412,3.10086 -0.14282,0.65335 -0.0943,0.72195 0.44151,0.62446 0.33108,-0.0602 1.17674,-0.38898 1.87926,-0.73054 z m 7.38773,-3.30317 c 0.87057,-0.5611 0.95335,-0.7015 0.67572,-1.14607 -0.67827,-1.08607 -2.59025,-1.32758 -2.59679,-0.32802 -0.002,0.24486 -0.0789,0.90535 -0.17184,1.46776 -0.16249,0.98359 -0.14473,1.01539 0.46593,0.83417 0.34917,-0.10362 1.08131,-0.47614 1.62698,-0.82784 z m -26.07122,0.0956 c 0.29998,-0.32742 0.79435,-1.09142 1.09859,-1.69777 l 0.55317,-1.10245 -1.99042,-0.18652 c -1.09472,-0.10258 -2.05226,-0.12466 -2.12786,-0.0491 -0.2417,0.2417 0.19142,1.95322 0.71011,2.80616 0.59535,0.97897 1.01911,1.03437 1.75641,0.22964 z m -8.13514,-0.1894 c 0.69578,-0.69579 1.91921,-3.14057 1.72714,-3.45135 -0.17045,-0.2758 -1.53359,-0.65452 -3.23946,-0.90002 l -1.12448,-0.16184 v 0.99706 c 0,1.87329 0.92488,4.03628 1.72589,4.03628 0.21493,0 0.62483,-0.23406 0.91091,-0.52013 z m -7.88206,-0.49065 c 0.72835,-0.2955 3.41073,-4.12656 3.08196,-4.40176 -0.19731,-0.16516 -4.35078,-1.46663 -4.68056,-1.46663 -0.28595,0 -0.33538,0.50266 -0.24093,2.44985 0.15706,3.23807 0.53825,3.94647 1.83953,3.41854 z m 24.21885,-0.25931 c 0.31236,-0.19851 1.13474,-1.92436 1.13474,-2.38136 0,-0.12588 -0.26789,-0.19915 -0.59531,-0.16284 -0.32742,0.0363 -0.89297,0.0778 -1.25677,0.0921 -1.15306,0.0455 -1.36908,0.33371 -1.01816,1.35848 0.41909,1.22385 0.97716,1.57551 1.7355,1.09359 z m 8.78282,-1.78359 c 0.2526,-1.00315 0.40812,-3.29839 0.22328,-3.29517 -0.0364,6.4e-4 -0.89959,0.30539 -1.91823,0.67723 -1.01865,0.37185 -2.05633,0.74133 -2.30596,0.82107 -0.42471,0.13567 -0.42227,0.20691 0.038,1.1087 0.81478,1.59642 1.75239,2.18262 3.10302,1.94004 0.42121,-0.0757 0.64621,-0.40321 0.8599,-1.25187 z m -39.29636,-0.35214 c 0.24657,-0.27246 0.79352,-1.31361 1.21543,-2.31365 0.6783,-1.60777 0.71855,-1.84545 0.34761,-2.05304 -0.39386,-0.22041 -3.53495,-1.48793 -3.68731,-1.48793 -0.28897,0 -0.37605,2.21943 -0.14241,3.62939 0.40294,2.43166 1.29093,3.30342 2.26668,2.22523 z m 54.40972,-0.48867 c 0.35981,-0.25018 0.85933,-0.69667 1.11005,-0.99218 0.4366,-0.5146 0.42672,-0.56322 -0.23371,-1.15027 -0.83751,-0.74446 -1.05966,-0.56569 -1.53469,1.23507 -0.39241,1.48755 -0.31984,1.58757 0.65835,0.90738 z m -9.05918,-2.52168 c 0.41493,-0.50211 0.67474,-2.22856 0.36425,-2.42045 -0.2762,-0.17071 -1.31627,0.20444 -2.34887,0.84721 l -0.5855,0.36446 0.56911,0.76976 c 0.59762,0.80833 1.52728,1.0123 2.00101,0.43902 z m 14.22953,-1.84341 c 0.10224,-0.32214 0.0318,-0.62359 -0.17574,-0.75185 -0.51401,-0.31768 -0.76855,-0.0472 -0.76855,0.81664 0,0.56668 0.10208,0.73066 0.38681,0.6214 0.21274,-0.0816 0.4636,-0.39042 0.55748,-0.68619 z m -7.87637,-1.31836 c 0.40868,-0.40868 0.42411,-2.8575 0.018,-2.8575 -0.80011,0 -3.4913,2.02703 -3.23715,2.43825 0.41815,0.67658 2.66872,0.96969 3.21915,0.41925 z m 5.48703,-13.387044 c 4.32528,-1.566287 6.73696,-4.447713 6.73651,-8.048635 -2.3e-4,-1.85788 -0.99905,-4.370991 -2.14781,-5.404107 -1.39927,-1.258396 -3.11372,-1.7926 -5.78948,-1.803936 -2.83692,-0.01202 -4.14224,0.466414 -6.18861,2.268285 -1.57273,1.384816 -3.07181,4.522774 -3.07181,6.430079 0,2.867497 1.43214,5.285441 3.84271,6.48783 1.41131,0.703964 4.77036,0.739736 6.61849,0.07048 z m -2.45379,-2.725537 c -0.99723,-0.3689 -1.52218,-1.515071 -1.55798,-3.401702 -0.0366,-1.927712 0.38984,-2.963293 1.41196,-3.429 2.12419,-0.967845 4.0415,0.797401 3.8893,3.580825 -0.0608,1.112348 -0.66137,2.566205 -1.19668,2.897045 -0.59014,0.364728 -1.9901,0.558693 -2.5466,0.352832 z"
       id="path134"
       sodipodi:nodetypes="cscsssssscsssssssscssssssccsssssssssscsssssssscsssssccssssssssssssssscscsccscssscsscsssssscsssccsscscscscccsscsscssssscsscsccssssscsssssssssssssssscssssscsssssscssssssscssssc" /><path
       id="path203"
       style="fill:#000000;fill-opacity:1;stroke:#000000;stroke-width:2.5;stroke-linejoin:round;stroke-dasharray:none;stroke-opacity:1"
       d="M 91.180998,71.818355 C 71.760677,80.674427 57.51974,92.493371 23.106083,79.39257 c -1.505286,-0.573042 -0.759236,10.682107 1.193209,10.924398 2.565592,0.31838 1.275734,0.815352 4.789372,0.561206 2.792084,-0.201956 -2.230026,6.078783 0.939994,7.052799 5.415128,1.663845 9.870032,2.984237 18.461405,2.524907 18.626726,-0.2306 34.235129,-10.165444 44.464956,-22.145993 1.076534,-1.260771 -1.378927,-4.227587 -1.774021,-6.491532 z m 2.19716,5.527645 c 1.349657,1.827918 3.921246,4.13188 3.921246,4.13188 z"
       sodipodi:nodetypes="csssscscccc" /><path
       style="fill:#668000;fill-opacity:1;stroke:#000000;stroke-width:2.3;stroke-dasharray:none;stroke-opacity:1"
       d="m 69.203058,163.10512 c 0.95451,1.72728 4.672195,4.16768 8.400845,5.35746 1.71135,0.54608 4.77841,1.76112 6.815698,2.7001 2.03729,0.93898 4.89479,2.15289 6.35,2.69758 1.45521,0.54468 5.00407,2.10959 7.88636,3.47757 4.598519,2.18253 5.770339,2.87645 9.565169,5.66429 2.37855,1.74739 5.76242,4.42375 7.5197,5.94747 1.75729,1.52373 3.70375,3.028 4.32546,3.34283 1.42453,0.72136 4.41157,1.55542 7.44891,2.07994 6.05281,1.04526 15.01306,0.0117 19.49899,-2.24908 4.76571,-2.40185 12.76673,-9.74003 14.64288,-13.42981 0.24362,-0.47912 0.95808,-1.66974 1.58768,-2.64583 1.48943,-2.30908 3.08076,-5.5075 3.97653,-7.99242 1.21964,-3.38337 1.67739,-6.33053 1.99308,-12.83229 0.16252,-3.34698 0.41086,-6.97392 0.55188,-8.05988 0.29433,-2.26664 1.58827,-5.3348 2.57827,-6.11353 0.77481,-0.60947 2.57231,-0.67983 3.83964,-0.1503 2.59176,1.0829 5.39388,6.59464 6.76986,13.31626 0.45979,2.246 0.55205,3.65549 0.55205,8.43342 0,6.43876 -0.41059,9.22956 -2.26027,15.36327 -2.94043,9.7507 -7.17493,18.51344 -13.02448,26.95243 -4.93213,7.11546 -12.70523,15.38056 -19.12947,20.34026 -6.90662,5.33212 -16.5493,10.33166 -26.13805,13.55207 -1.21641,0.40854 -2.27424,0.90591 -2.35075,1.10528 0,0 -28.819153,6.3908 -46.260729,0.17216 -10.960725,-6.58109 -24.811496,-11.52585 -34.135398,-21.67602 -1.177052,-1.28136 -2.56479,-4.34247 -3.58002,-6.41615 -1.29221,-2.63942 -2.19043,-3.47424 -2.29386,-3.77031 -0.85475,-2.44679 -4.67399,-10.09477 -4.91059,-15.51373 -0.2059,-1.50214 -0.464392,-7.83564 -2.478842,-10.76128"
       id="path178"
       sodipodi:nodetypes="csssssssscssssssssssssscsssssc"
       inkscape:export-filename=".\path178.png"
       inkscape:export-xdpi="96"
       inkscape:export-ydpi="96" /><path
       style="fill:#e9ddaf;stroke:none;stroke-width:0.338338"
       d="m 166.60271,412.43329 c -7.07714,-0.63886 -18.09472,-3.76393 -25.26336,-7.16579 -6.53469,-3.10102 -13.85472,-10.31073 -20.61208,-20.30142 -3.56205,-5.26647 -4.6641,-7.6861 -4.67147,-10.25659 -0.006,-1.9778 0.0169,-2.02856 0.87596,-1.97299 0.48498,0.0314 2.69961,0.88881 4.92141,1.90543 13.41879,6.13995 24.10232,8.22031 44.10169,8.58773 11.29656,0.20754 17.56084,-0.22897 27.64473,-1.92638 10.78844,-1.816 24.96393,-5.34066 34.44032,-8.5634 9.46824,-3.21997 40.01137,-15.21923 48.31071,-18.97948 16.3386,-7.40267 32.09645,-16.40828 37.68892,-21.53922 0.77831,-0.71407 1.98869,-1.53797 2.68974,-1.83089 0.83872,-0.35044 3.95246,-3.21904 9.10476,-8.38795 8.59398,-8.62168 12.82865,-13.24326 17.65014,-19.26275 5.28576,-6.59914 7.02141,-7.47786 8.37436,-4.23977 0.65603,1.57008 0.65566,3.86674 -0.001,6.6529 -1.05977,4.496 -1.5799,10.00817 -2.34922,24.89614 -0.63403,12.26992 -1.05158,16.43897 -2.03615,20.33038 -1.44302,5.70342 -3.30195,8.47333 -9.96225,14.84436 -7.91225,7.5686 -11.86886,11.72131 -13.43988,14.10597 -1.6371,2.48496 -6.4427,7.20204 -8.28382,8.13123 -0.62242,0.31413 -8.66815,3.41496 -17.87941,6.89075 -9.21125,3.47578 -18.5463,7.00279 -20.74454,7.83779 -2.19824,0.835 -4.06605,1.44894 -4.15067,1.36431 -0.0846,-0.0846 0.80042,-0.65795 1.96677,-1.27405 4.89279,-2.5845 8.18292,-5.13344 9.25289,-7.16843 0.6499,-1.23608 0.60671,-3.14093 -0.087,-3.83459 -0.82716,-0.82716 -2.87197,-0.45791 -8.57636,1.54874 -6.09729,2.14486 -34.78563,10.37134 -47.07946,13.5002 -5.14982,1.31066 -11.62054,2.77025 -14.37937,3.24353 -2.75883,0.47328 -6.53858,1.15545 -8.39944,1.51592 -1.86086,0.36048 -4.9059,0.81883 -6.76676,1.01856 -4.36819,0.46883 -28.11689,0.71099 -32.34012,0.32976 z"
       id="path179"
       transform="scale(0.26458333)" /><path
       style="fill:#c8c4b7;stroke:none;stroke-width:0.338338"
       d="m 302.30513,257.77367 c -1.39564,-0.15981 -3.54126,-0.59391 -4.76803,-0.96468 -5.13974,-1.55339 -10.83646,-6.67817 -13.62589,-12.25788 -2.29075,-4.58221 -2.75221,-6.64155 -2.75221,-12.28198 0,-5.68161 0.5058,-7.65072 3.56323,-13.87186 2.46456,-5.01477 5.58106,-9.20252 8.84015,-11.8788 6.94745,-5.70508 10.64821,-7.13 19.4004,-7.46986 11.66686,-0.45303 19.29535,1.75723 24.71333,7.16037 4.55741,4.54493 7.67408,12.6529 7.67641,19.97007 0.002,5.92946 -1.29232,10.16444 -4.65985,15.24836 -4.37881,6.61062 -13.64483,12.92534 -22.53699,15.35877 -4.49464,1.23 -10.47731,1.60272 -15.85055,0.98749 z m 16.10911,-11.96104 c 2.42814,-0.72442 3.31873,-1.54805 4.69301,-4.34017 4.02679,-8.18121 2.07783,-17.99449 -4.23392,-21.31847 -1.69233,-0.89123 -2.0844,-0.96278 -4.58715,-0.83705 -3.65505,0.18361 -5.90985,1.3823 -7.48346,3.97832 -1.54707,2.55224 -1.89952,4.72542 -1.70094,10.48758 0.13576,3.93916 0.32175,5.34644 0.937,7.08968 0.87792,2.48747 2.97076,4.85519 4.78431,5.41271 1.43166,0.44012 5.3494,0.19622 7.59115,-0.4726 z"
       id="path180"
       transform="scale(0.26458333)" /><path
       style="fill:#c8c4b7;stroke:none;stroke-width:0.338338"
       d="m 279.09255,342.48278 c 0.66684,-6.62368 0.80487,-7.32378 1.56527,-7.93952 0.97706,-0.79117 3.46883,-0.77799 5.23791,0.0277 1.4684,0.66876 3.89089,3.12016 3.89089,3.93732 0,0.27859 -0.30975,0.81628 -0.68834,1.19487 -1.73651,1.73651 -7.9804,5.06341 -9.50296,5.06341 -0.70171,0 -0.72297,-0.0966 -0.50277,-2.28379 z"
       id="path181"
       transform="scale(0.26458333)" /><path
       style="fill:#c8c4b7;stroke:none;stroke-width:0.338338"
       d="m 306.80173,328.10341 c 0.24585,-2.2642 1.63731,-7.02814 2.38697,-8.17226 0.31651,-0.48306 0.88558,-0.87828 1.2646,-0.87828 0.7966,0 4.37034,3.24395 4.37034,3.96703 0,1.03112 -6.72032,6.85979 -7.90918,6.85979 -0.16808,0 -0.21881,-0.79933 -0.11273,-1.77628 z"
       id="path182"
       transform="scale(0.26458333)" /><path
       style="fill:#c8c4b7;stroke:none;stroke-width:0.338338"
       d="m 326.20245,314.41701 c -0.11751,-0.11751 -0.21365,-1.14882 -0.21365,-2.2918 0,-2.54047 0.51783,-3.42063 1.82018,-3.09376 1.67638,0.42074 1.81788,2.67975 0.27467,4.38497 -0.7276,0.80399 -1.60899,1.27279 -1.8812,1.00059 z"
       id="path183"
       transform="scale(0.26458333)" /><path
       style="fill:#c8c4b7;stroke:none;stroke-width:0.338338"
       d="m 291.45782,307.44239 c -1.84183,-0.51631 -3.75758,-1.5846 -3.96671,-2.21199 -0.0829,-0.24855 0.81844,-1.39323 2.00287,-2.54373 3.66142,-3.55656 9.30757,-6.89633 10.18143,-6.02247 0.62133,0.62133 0.91986,4.13072 0.57965,6.81403 -0.45491,3.58795 -1.12124,4.20812 -4.63754,4.31625 -1.43918,0.0442 -3.31104,-0.11419 -4.1597,-0.35209 z"
       id="path184"
       transform="scale(0.26458333)" /><path
       style="fill:#c8c4b7;stroke:none;stroke-width:0.338338"
       d="m 270.59691,319.37775 c -0.8973,-0.45468 -1.99962,-1.4937 -2.96979,-2.79926 l -1.54285,-2.07619 0.7706,-0.59762 c 1.56263,-1.21185 7.07984,-3.73736 8.51898,-3.89957 1.42815,-0.16097 1.49315,-0.12837 1.70974,0.85775 0.45014,2.0495 -0.98437,7.40091 -2.26784,8.46013 -0.97525,0.80485 -2.69453,0.82716 -4.21884,0.0548 z"
       id="path185"
       transform="scale(0.26458333)" /><path
       style="fill:#c8c4b7;stroke:none;stroke-width:0.338338"
       d="m 243.58449,335.50493 c -1.01462,-0.47247 -2.28705,-1.46918 -3.12727,-2.44965 -1.52042,-1.7742 -4.39221,-7.08425 -4.02819,-7.44827 0.42929,-0.42929 16.6526,-6.13152 16.94833,-5.95706 0.3858,0.22759 -0.009,6.39567 -0.64179,10.02364 -0.93295,5.34993 -1.97522,6.63664 -5.37143,6.63122 -1.45744,-0.002 -2.57462,-0.23876 -3.77965,-0.79988 z"
       id="path186"
       transform="scale(0.26458333)" /><path
       style="fill:#c8c4b7;stroke:none;stroke-width:0.338338"
       d="m 250.29618,356.36828 c -0.12209,-0.31816 0.0967,-1.80262 0.48608,-3.2988 2.03676,-7.82523 4.40238,-10.86135 7.74682,-9.94256 2.53071,0.69524 4.5081,3.71317 4.60214,7.02389 0.0417,1.4692 -0.65451,2.05938 -4.64088,3.93389 -2.44674,1.15054 -7.12792,2.86204 -7.82803,2.86204 -0.0793,0 -0.24404,-0.26031 -0.36613,-0.57846 z"
       id="path187"
       transform="scale(0.26458333)" /><path
       style="fill:#c8c4b7;stroke:none;stroke-width:0.338338"
       d="m 210.61549,370.39202 c 0,-1.89812 1.17462,-9.18362 1.86444,-11.56404 1.97962,-6.83123 4.75984,-9.87103 8.40301,-9.18756 1.51054,0.28338 4.4161,3.37023 7.50021,7.96821 2.27309,3.38886 2.74204,4.54781 2.39678,5.92341 -0.40621,1.61848 -4.59432,3.38431 -13.2285,5.57752 -7.24957,1.8415 -6.93594,1.7835 -6.93594,1.28246 z"
       id="path188"
       transform="scale(0.26458333)" /><path
       style="fill:#c8c4b7;stroke:none;stroke-width:0.338338"
       d="m 215.2115,337.97939 c -1.17138,-1.02849 -2.28628,-3.38883 -2.73797,-5.79657 -0.19262,-1.02677 -0.0992,-1.29183 0.66815,-1.89542 0.89311,-0.70252 1.87445,-0.87753 6.94728,-1.23897 3.5806,-0.25511 3.69781,-0.12068 2.57615,2.95472 -1.15939,3.17886 -2.97032,6.09766 -4.10355,6.61399 -1.35716,0.61836 -2.07509,0.48169 -3.35006,-0.63775 z"
       id="path189"
       transform="scale(0.26458333)" /><path
       style="fill:#c8c4b7;stroke:none;stroke-width:0.338338"
       d="m 178.92244,375.35588 c -0.12865,-0.33526 -0.0631,-2.31909 0.14576,-4.40851 0.96311,-9.63658 6.25436,-18.39334 11.11679,-18.39776 2.55738,-0.002 3.9574,1.93859 5.21359,7.22783 0.93296,3.92825 2.00888,11.18639 1.78509,12.04217 -0.36732,1.40462 -1.43073,1.69015 -11.43603,3.07069 -2.79129,0.38514 -5.41622,0.78461 -5.83318,0.8877 -0.53288,0.13176 -0.8276,0.006 -0.99202,-0.42212 z"
       id="path190"
       transform="scale(0.26458333)" /><path
       style="fill:#c8c4b7;stroke:none;stroke-width:0.338338"
       d="m 183.8404,343.40749 c -1.4792,-0.86388 -3.95072,-6.1291 -4.64826,-9.90243 -0.5196,-2.81081 -0.40397,-2.94869 2.47288,-2.94869 2.26181,0 7.89833,0.43506 11.26355,0.86939 l 1.42917,0.18445 -1.57454,2.94105 c -4.13866,7.73049 -6.63587,10.20353 -8.9428,8.85623 z"
       id="path191"
       transform="scale(0.26458333)" /><path
       style="fill:#c8c4b7;stroke:none;stroke-width:0.338338"
       d="m 165.7715,374.28657 c -1.09705,-1.15022 -5.86551,-10.80259 -7.13077,-14.43419 l -0.93266,-2.67695 1.16294,-0.97168 c 2.05199,-1.71452 5.92109,-2.42388 8.8235,-1.6177 0.67768,0.18824 1.39073,0.53332 1.58455,0.76686 0.35212,0.42428 -0.31631,14.6413 -0.81952,17.43062 -0.47511,2.63355 -1.21513,3.04734 -2.68804,1.50304 z"
       id="path192"
       transform="scale(0.26458333)" /><path
       style="fill:#c8c4b7;stroke:none;stroke-width:0.338338"
       d="m 149.30058,375.52736 c -3.90333,-0.57204 -5.19601,-1.88483 -4.91437,-4.99084 0.33164,-3.65733 4.25683,-13.92812 5.32292,-13.92812 0.72816,0 6.47643,10.51108 8.76813,16.03306 0.88482,2.13204 1.01663,2.72633 0.65543,2.95528 -0.5652,0.35827 -7.23517,0.3112 -9.83211,-0.0694 z"
       id="path193"
       transform="scale(0.26458333)" /><path
       style="fill:#c8c4b7;stroke:none;stroke-width:0.338338"
       d="m 153.21101,342.63996 c -1.65563,-0.92837 -3.61939,-4.64982 -4.63406,-8.78185 -0.73531,-2.99434 -1.14619,-9.39183 -0.6032,-9.39183 2.58057,0 12.18492,2.01772 14.51906,3.05022 1.44848,0.64073 1.51159,0.72678 1.33428,1.81942 -0.53968,3.32561 -5.2352,11.14365 -7.6559,12.74706 -1.66437,1.10242 -1.90629,1.14794 -2.96018,0.55698 z"
       id="path194"
       transform="scale(0.26458333)" /><path
       style="fill:#c8c4b7;stroke:none;stroke-width:0.338338"
       d="m 128.86614,370.51281 c -1.97861,-0.33431 -3.04215,-1.14915 -4.02092,-3.08065 -2.35934,-4.65594 -2.42749,-12.2115 -0.12304,-13.64146 0.38769,-0.24056 0.8908,-0.20228 1.6895,0.12855 1.60845,0.66625 6.22726,5.18462 7.01624,6.86367 0.74803,1.59191 1.19369,6.36098 0.79554,8.51316 l -0.25037,1.35335 -1.85645,0.0495 c -1.02105,0.0272 -2.48378,-0.0565 -3.2505,-0.18608 z"
       id="path195"
       transform="scale(0.26458333)" /><path
       style="fill:#c8c4b7;stroke:none;stroke-width:0.338338"
       d="m 123.50156,338.88454 c -1.50458,-1.50457 -2.15803,-5.25791 -2.42186,-13.91075 -0.25549,-8.37969 -0.49013,-8.03257 4.46085,-6.59945 4.86289,1.40763 12.715,3.98268 13.30847,4.36445 0.67391,0.43351 0.31363,1.5006 -1.55771,4.61364 -3.00148,4.99306 -7.80048,10.91719 -9.59586,11.84562 -1.4743,0.76239 -3.25079,0.62959 -4.19389,-0.31351 z"
       id="path196"
       transform="scale(0.26458333)" /><path
       style="fill:#d4aa00;stroke:none;stroke-width:0.338338"
       d="m 98.92682,330.5582 c -1.490655,-1.567 -2.707794,-4.96898 -3.350592,-9.3651 -0.504002,-3.44689 -0.334956,-11.74906 0.251154,-12.33462 0.328967,-0.32866 1.024191,-0.18462 3.322263,0.68831 5.992235,2.27617 11.009405,4.53152 11.303625,5.08127 0.42435,0.79291 -0.90696,4.637 -3.40389,9.82861 -2.2767,4.7337 -3.27437,6.20724 -4.70278,6.9459 -1.47899,0.76481 -2.01487,0.6325 -3.41978,-0.84437 z"
       id="path197"
       transform="scale(0.26458333)" /><path
       style="fill:#d4aa00;stroke:none;stroke-width:0.338338"
       d="m 135.49278,257.91366 c -2.30486,-1.14856 -4.50928,-3.32683 -5.06218,-5.00214 -1.1554,-3.50089 0.55484,-7.41985 5.46579,-12.52464 5.15815,-5.36176 9.41662,-8.11841 20.23226,-13.09701 6.08312,-2.80016 7.44786,-3.6021 7.45365,-4.37988 0.006,-0.83401 -2.08002,-1.06674 -5.82208,-0.64948 -10.1612,1.13304 -23.15591,6.83145 -30.72118,13.47178 -4.81036,4.22224 -7.79569,8.27772 -11.32786,15.38856 -3.33761,6.71917 -4.04285,7.47223 -6.08864,6.50143 -1.64842,-0.78222 -5.18676,-4.67422 -6.13752,-6.75096 -0.7633,-1.66725 -0.77543,-1.81231 -0.28874,-3.45118 0.73957,-2.49042 1.86157,-4.90299 4.0574,-8.72441 2.75749,-4.79891 4.80149,-7.4463 8.41994,-10.90556 12.09114,-11.5592 27.12351,-16.95379 52.07751,-18.68877 4.54274,-0.31585 6.3214,-0.27624 8.62146,0.19197 1.02093,0.20782 0.67633,0.70334 -0.69439,0.9985 -3.44967,0.74284 -3.85282,2.1217 -1.33101,4.5524 0.89407,0.86177 2.98754,2.38119 4.65215,3.37649 1.66462,0.9953 4.92973,3.10194 7.25581,4.68143 4.51425,3.06535 7.12792,4.4524 8.39989,4.45774 1.06846,0.004 2.62346,1.63494 3.05709,3.20544 0.53031,1.92061 -0.12521,3.18225 -2.25598,4.34196 -2.73141,1.48662 -4.91834,2.11783 -15.48813,4.47028 -18.8822,4.20249 -20.58871,4.91654 -32.47152,13.587 -6.1161,4.46269 -8.39685,5.86407 -9.5438,5.86407 -0.34305,0 -1.45001,-0.41176 -2.45992,-0.91502 z"
       id="path198"
       transform="scale(0.26458333)" /><path
       style="fill:#d4aa00;stroke:none;stroke-width:0.338338"
       d="m 205.20875,235.38711 c -1.28975,-0.65259 -1.61767,-1.69585 -1.87179,-5.95515 -0.27274,-4.57128 -0.80586,-6.09232 -2.74857,-7.84199 -1.94047,-1.74765 -6.54081,-4.49608 -13.4874,-8.0579 -6.4582,-3.31141 -7.93559,-4.22889 -7.50424,-4.66024 0.4487,-0.4487 21.75019,-0.58085 24.51369,-0.15208 4.7602,0.73857 6.4393,1.64369 14.06407,7.58119 6.67831,5.20049 8.89833,7.48539 9.195,9.46371 0.78029,5.20337 -3.49732,7.84784 -15.44023,9.54533 -4.29889,0.61101 -5.63506,0.62635 -6.72053,0.0771 z"
       id="path199"
       transform="scale(0.26458333)" /><path
       style="fill:#d4aa00;stroke:none;stroke-width:0.338338"
       d="m 236.76983,229.4093 c -0.94769,-0.40718 -1.79399,-2.03423 -1.79399,-3.44902 0,-0.64704 0.38224,-1.64973 0.93043,-2.44069 0.80117,-1.15598 0.93043,-1.67555 0.93043,-3.73991 0,-2.17546 -0.10382,-2.54162 -1.12134,-3.95493 -1.23807,-1.71966 -4.24907,-4.29853 -8.28165,-7.09311 l -2.63623,-1.8269 2.29789,-0.71355 c 1.26384,-0.39246 4.37681,-1.651 6.91771,-2.79677 2.5409,-1.14578 5.06968,-2.08323 5.61952,-2.08323 0.54983,0 2.12496,0.51692 3.50029,1.14869 3.95348,1.8161 11.3618,3.59007 14.97885,3.58678 1.95859,-0.002 3.59281,-1.05545 3.59281,-2.3165 0,-2.7714 -4.66862,-4.98521 -13.70269,-6.49765 -1.3026,-0.21808 -2.49236,-0.51083 -2.64391,-0.65056 -0.31412,-0.28964 8.58536,-8.87622 12.03247,-11.60942 4.77298,-3.78448 10.4514,-6.28723 19.03184,-8.38822 3.98148,-0.97489 8.32882,-1.39839 8.86375,-0.86346 0.39433,0.39433 -0.57559,1.01854 -5.4338,3.49702 -7.14197,3.64358 -11.38089,6.83323 -11.38089,8.56377 0,0.36141 0.36803,0.89825 0.81786,1.19299 1.04123,0.68224 2.65373,0.29018 6.27467,-1.52562 11.47347,-5.75363 29.11637,-10.09845 44.68985,-11.00551 11.18185,-0.65128 27.28616,3.14914 40.77557,9.62252 8.98184,4.31026 13.36836,8.09834 12.50988,10.80317 -0.33847,1.06642 -4.01114,4.47931 -6.3275,5.87994 -2.32514,1.40594 -4.59658,1.69733 -5.93317,0.76115 -0.39861,-0.27919 -1.91694,-2.42497 -3.37408,-4.76839 -7.70352,-12.38905 -17.65755,-18.17285 -33.52805,-19.48152 -8.77346,-0.72345 -19.14027,0.56963 -26.13128,3.25943 -6.22453,2.39489 -14.18618,6.88607 -20.21547,11.40359 -4.18292,3.13409 -11.72004,10.46036 -14.38793,13.9854 -1.12669,1.48869 -2.79187,4.30535 -3.70041,6.25925 -2.80469,6.03181 -3.08282,6.49481 -5.17264,8.61069 -2.33273,2.36183 -5.93907,4.3819 -10.21643,5.7227 -3.11105,0.9752 -6.66161,1.3894 -7.78236,0.90787 z"
       id="path200"
       transform="scale(0.26458333)" /><path
       style="fill:#d4aa00;stroke:none;stroke-width:0.338338"
       d="m 385.25882,233.36873 c -1.36545,-1.98995 -3.44423,-6.19361 -3.44423,-6.96485 0,-0.35085 0.39253,-1.21634 0.87229,-1.9233 1.10588,-1.6296 9.70077,-10.67917 10.03527,-10.56615 0.13745,0.0464 1.9154,2.66647 3.95101,5.82227 l 3.70109,5.73783 -1.21932,1.36727 c -1.88149,2.1098 -4.64802,4.07441 -8.60095,6.10786 -1.98548,1.02135 -3.76712,1.85701 -3.95922,1.85701 -0.19209,0 -0.79327,-0.64707 -1.33594,-1.43794 z"
       id="path201"
       transform="scale(0.26458333)" /><path
       style="fill:#000000;stroke:#000000;stroke-width:1.59845;stroke-dasharray:none;stroke-opacity:1"
       d="m 311.99749,241.2482 c -0.64785,-0.51556 -1.42343,-2.22029 -1.77617,-3.90399 -0.42089,-2.00907 -0.42228,-7.68432 -0.002,-9.35329 0.5276,-2.09658 1.17559,-2.9656 2.61211,-3.50307 2.57231,-0.96243 4.89985,0.0892 6.28927,2.84161 0.80381,1.59234 1.08529,2.91906 1.10186,5.19343 0.0184,2.52713 -0.42398,4.42342 -1.56547,6.71033 l -0.78812,1.57895 -1.01501,0.30956 c -0.55826,0.17026 -1.77627,0.35033 -2.7067,0.40016 -1.55273,0.0832 -1.7293,0.0607 -2.14948,-0.27369 z"
       id="path202"
       transform="scale(0.26458333)" /><path
       style="fill:#668000;fill-opacity:1;stroke:#000000;stroke-width:2.1;stroke-dasharray:none;stroke-opacity:1"
       d="m -243.91025,88.630137 c 0.47125,4.209455 1.45724,10.470897 2.28092,15.765243 0.79119,5.08541 1.43262,9.27854 1.32429,9.90379 -0.52297,3.0186 -0.10223,5.45474 2.84039,16.44769 2.05231,7.6669 2.1964,9.07333 1.15963,11.31836 -1.51498,3.28058 -3.58743,4.66348 -9.30686,6.21031 -2.30361,0.62301 -5.30689,1.61928 -6.67396,2.21394 -1.36706,0.59464 -3.49276,1.28415 -4.72377,1.53223 -1.23103,0.24808 -3.3885,0.68629 -4.79441,0.97381 -3.4045,0.69626 -5.37435,0.61144 -7.36778,-0.31722 -1.29528,-0.60337 -1.69565,-0.92293 -2.31801,-1.85007 -0.88905,-1.32431 -0.92788,-2.17916 -0.16467,-3.6245 0.30931,-0.58544 0.50313,-1.25781 0.43101,-1.494 -0.0821,-0.26883 -0.89846,-0.83783 -2.1828,-1.52135 -1.93839,-1.03161 -2.07376,-1.15202 -2.45089,-2.18101 l -0.3992,-1.08911 1.20737,-2.22885 c 1.14204,-2.10821 1.30305,-2.29433 2.97475,-3.43889 1.31295,-0.89892 2.05014,-1.6227 2.86717,-2.81502 0.62921,-0.91824 1.58907,-1.95524 2.24326,-2.42355 0.96958,-0.69408 1.53764,-0.83771 3.73537,-0.94448 1.42554,-0.0693 2.69501,-0.22393 2.82105,-0.34372 0.35101,-0.3336 -0.24561,-2.45911 -1.17013,-4.16872 -0.45635,-0.84389 -0.64702,-2.11111 -0.91998,-2.68304 -2.7007,-5.65882 -4.6046,-15.9264 -6.29948,-24.088472 -0.1405,-0.676596 -1.46102,-77.663594 34.24319,-69.948076 24.00757,5.187932 -10.97867,59.277304 -9.38104,60.75389"
       id="path204"
       sodipodi:nodetypes="csssssssssscssscssssssssssc"
       inkscape:export-filename=".\path204.png"
       inkscape:export-xdpi="96"
       inkscape:export-ydpi="96" /><ellipse
       style="fill:#000000;fill-opacity:1;stroke:none;stroke-width:2.00556;stroke-linejoin:round;stroke-dasharray:none;stroke-opacity:1"
       id="path205"
       ry="1.4546777"
       rx="3.7597828"
       cy="80.881332"
       cx="-12.445461"
       transform="rotate(-39.3594)" /><path
       style="fill:#e9ddaf;fill-opacity:1;stroke:none;stroke-width:6.39379;stroke-linejoin:round;stroke-dasharray:none;stroke-opacity:1"
       d="m 355.59339,897.52863 c -18.0956,-1.27769 -36.02812,-3.76254 -53.56455,-7.42228 -41.49315,-8.65934 -60.95069,-18.12765 -114.58951,-55.76086 -6.69909,-4.70011 -13.93482,-9.70084 -16.07938,-11.11273 -5.3635,-3.53109 -7.36946,-6.09863 -14.19993,-18.17524 -11.72578,-20.73178 -14.86223,-28.47884 -22.88372,-56.52296 -2.58754,-9.0464 -8.36084,-27.2957 -12.82954,-40.55402 -6.2483,-18.53826 -7.92707,-24.24582 -7.26835,-24.71121 1.92353,-1.359 14.16324,-6.88601 20.68385,-9.34008 3.83374,-1.44285 7.8393,-3.24205 8.90125,-3.99822 1.06194,-0.75617 2.21822,-1.37486 2.5695,-1.37486 0.64206,0 5.40882,11.73513 11.40683,28.08206 3.20277,8.72883 7.0544,15.36101 14.19919,24.44985 1.4539,1.84949 4.31823,6.35144 6.36517,10.00433 4.26996,7.61998 8.45367,12.14584 17.25525,18.66639 9.7137,7.19629 19.98542,12.66822 40.26224,21.44839 3.9078,1.69214 7.58583,3.49599 8.17339,4.00856 0.58757,0.51257 1.56323,0.93195 2.16815,0.93195 1.49729,0 24.36556,9.86603 36.01078,15.53607 8.50795,4.14252 10.16312,5.25075 16.24023,10.8738 3.72172,3.44364 8.13703,7.14529 9.81181,8.22589 3.44286,2.22141 29.9831,11.01715 53.46535,17.71903 67.92897,19.38706 122.88997,24.0429 167.80779,14.2153 9.3088,-2.03668 25.57116,-7.33116 32.85493,-10.69647 2.8894,-1.33498 5.34922,-2.33148 5.46627,-2.21443 0.38015,0.38015 -12.54166,11.50768 -19.25975,16.5854 -29.72392,22.46616 -71.63588,39.43124 -115.67307,46.82201 -18.78842,3.15326 -30.84343,4.15483 -52.5955,4.36981 -11.53733,0.11402 -22.65174,0.0891 -24.69868,-0.0555 z"
       id="path206"
       transform="scale(0.26458333)" /><path
       style="fill:#d4aa00;fill-opacity:1;stroke:none;stroke-width:6.39379;stroke-linejoin:round;stroke-dasharray:none;stroke-opacity:1"
       d="m 314.31613,688.11118 c -2.79129,-1.87468 -5.73401,-4.0249 -6.53938,-4.77827 -1.452,-1.35824 -1.45419,-1.39907 -0.26056,-4.85903 0.66207,-1.91911 2.50946,-6.63178 4.10532,-10.47261 2.78643,-6.70623 2.97129,-6.96587 4.65895,-6.5436 3.64886,0.91297 14.2759,6.4615 14.2759,7.45364 0,1.73033 -8.09766,18.64889 -10.26458,21.44594 -0.82836,1.06923 -1.30755,0.88912 -5.97565,-2.24607 z"
       id="path207"
       transform="scale(0.26458333)" /><path
       style="fill:#d4aa00;fill-opacity:1;stroke:none;stroke-width:6.39379;stroke-linejoin:round;stroke-dasharray:none;stroke-opacity:1"
       d="m 372.47555,724.32104 c -3.51653,-2.08045 -9.63315,-5.58992 -13.59249,-7.79881 l -7.19881,-4.01618 5.00976,-12.3323 c 2.75536,-6.78277 5.19636,-13.4742 5.42443,-14.86984 0.27027,-1.65385 0.77747,-2.53754 1.45643,-2.53754 1.92325,0 23.51891,11.90981 29.06906,16.03131 l 2.20171,1.63498 -5.38179,10.6213 c -5.68883,11.22726 -9.11661,17.04972 -10.03747,17.04972 -0.30644,0 -3.43431,-1.70219 -6.95083,-3.78264 z"
       id="path208"
       transform="scale(0.26458333)" /><path
       style="fill:#d4aa00;fill-opacity:1;stroke:none;stroke-width:6.39379;stroke-linejoin:round;stroke-dasharray:none;stroke-opacity:1"
       d="m 216.99886,707.66934 c 0.58417,-7.04439 5.0597,-13.59269 11.51848,-16.85307 2.23185,-1.12663 4.15093,-1.95236 4.26462,-1.83495 0.3774,0.38976 -9.92604,17.09656 -11.74822,19.04947 -0.98484,1.05551 -2.36389,2.22973 -3.06456,2.60938 -1.1901,0.64486 -1.25395,0.44938 -0.97032,-2.97083 z"
       id="path209"
       transform="scale(0.26458333)" /><path
       style="fill:#d4aa00;fill-opacity:1;stroke:none;stroke-width:6.39379;stroke-linejoin:round;stroke-dasharray:none;stroke-opacity:1"
       d="m 205.16464,661.99242 c -1.98583,-0.51477 -0.98133,-1.7561 3.29324,-4.06968 6.54358,-3.54167 12.40942,-4.57154 26.01045,-4.56665 9.48895,0.003 13.45524,0.31085 19.96195,1.54733 4.46607,0.84869 8.37584,1.79816 8.68839,2.10993 0.31256,0.31178 -1.02783,1.09701 -2.97864,1.74496 -3.15296,1.04725 -5.39565,1.12737 -20.19188,0.72139 -16.32421,-0.44791 -16.77947,-0.42353 -23.62402,1.26484 -6.82369,1.68322 -8.6795,1.89074 -11.15949,1.24788 z"
       id="path210"
       transform="scale(0.26458333)" /><path
       style="fill:#d4aa00;fill-opacity:1;stroke:none;stroke-width:6.39379;stroke-linejoin:round;stroke-dasharray:none;stroke-opacity:1"
       d="m 472.99672,779.61507 c -3.96159,-0.72663 -5.54987,-1.82033 -6.40464,-4.41033 -0.92951,-2.81643 -2.02783,-15.52243 -2.0428,-23.63216 -0.01,-5.35514 0.11033,-5.93398 1.17317,-5.64901 0.6513,0.17463 3.86522,0.85524 7.14204,1.51246 4.30888,0.86423 6.14514,1.54489 6.6345,2.45926 0.7949,1.48529 3.77454,28.71967 3.2045,29.28971 -0.67241,0.67242 -6.88481,0.94766 -9.70677,0.43007 z"
       id="path211"
       transform="scale(0.26458333)" /><path
       style="fill:#d4aa00;fill-opacity:1;stroke:none;stroke-width:6.39379;stroke-linejoin:round;stroke-dasharray:none;stroke-opacity:1"
       d="m 519.73668,771.91847 c -2.29524,-3.50536 -9.49961,-21.3232 -8.89098,-21.98916 0.0836,-0.0915 3.92768,-0.47482 8.54236,-0.85185 7.23736,-0.59131 15.88391,-1.78866 22.43062,-3.10613 1.73625,-0.34941 2.00297,-0.0246 5.15457,6.27632 4.8974,9.79135 4.88122,9.19114 0.30294,11.23904 -2.14782,0.96074 -6.79792,2.79387 -10.33356,4.07363 -3.53563,1.27976 -8.3224,3.12645 -10.63726,4.10376 -5.11122,2.15789 -5.31709,2.16586 -6.56869,0.25439 z"
       id="path212"
       transform="scale(0.26458333)" /><path
       style="fill:#d4aa00;fill-opacity:1;stroke:none;stroke-width:6.39379;stroke-linejoin:round;stroke-dasharray:none;stroke-opacity:1"
       d="m 573.58974,740.95585 c -1.54731,-2.19409 -2.81329,-4.27689 -2.81329,-4.62845 0,-0.35156 1.44639,-1.56798 3.21421,-2.70317 1.76781,-1.13518 4.86785,-3.29846 6.88897,-4.80727 2.02112,-1.50882 3.84815,-2.73389 4.06006,-2.72238 0.21191,0.0115 1.39986,1.36791 2.63987,3.01423 1.50118,1.99305 2.11746,3.42534 1.84424,4.28618 -0.53767,1.69404 -8.25541,9.08585 -10.93119,10.46955 l -2.08957,1.08056 z"
       id="path213"
       transform="scale(0.26458333)" /><path
       style="fill:#d4aa00;fill-opacity:1;stroke:none;stroke-width:6.39379;stroke-linejoin:round;stroke-dasharray:none;stroke-opacity:1"
       d="m 608.42931,709.02423 -1.69245,-2.16255 1.43677,-2.06668 c 0.79023,-1.13667 3.92021,-5.26397 6.95552,-9.17178 3.03531,-3.90781 7.12837,-9.54114 9.09569,-12.51851 1.96731,-2.97738 3.81982,-5.68259 4.11668,-6.01159 0.6297,-0.69785 4.68914,3.50926 4.68914,4.85972 0,1.2597 -5.16663,9.13291 -11.36015,17.31124 -6.38357,8.4293 -9.50744,11.92269 -10.66152,11.92269 -0.48798,0 -1.64883,-0.97314 -2.57968,-2.16254 z"
       id="path214"
       transform="scale(0.26458333)" /><path
       style="fill:#d4aa00;fill-opacity:1;stroke:none;stroke-width:6.39379;stroke-linejoin:round;stroke-dasharray:none;stroke-opacity:1"
       d="m 647.57534,636.24488 c 0.2636,-0.6513 1.25708,-4.38148 2.20774,-8.28929 0.95066,-3.9078 1.84286,-7.24151 1.98268,-7.40824 0.13982,-0.16673 1.89004,0.58174 3.88937,1.66326 3.50951,1.89843 3.62329,2.04923 3.29219,4.3632 -0.18863,1.31824 -1.20898,4.29995 -2.26744,6.62602 l -1.92447,4.22923 h -3.82967 c -3.37876,0 -3.77324,-0.13943 -3.3504,-1.18418 z"
       id="path215"
       transform="scale(0.26458333)" /><path
       style="fill:#d4aa00;fill-opacity:1;stroke:none;stroke-width:6.39379;stroke-linejoin:round;stroke-dasharray:none;stroke-opacity:1"
       d="m 655.57009,577.0357 c -0.73957,-1.14269 -0.39338,-18.97473 0.45524,-23.44951 1.53272,-8.08198 3.48764,-9.25433 6.80676,-4.08194 l 2.23993,3.49064 -0.87093,6.18407 c -1.15675,8.2135 -3.17006,15.94408 -4.54931,17.46813 -1.29007,1.42551 -3.28752,1.61568 -4.08169,0.38861 z"
       id="path216"
       transform="scale(0.26458333)" /><path
       style="fill:#000000"
       d="m -159.18203,-92.27948 -3.54141,0.95389 c -6.51247,1.75416 -9.26008,2.14335 -15.18307,2.15065 -4.73918,0.006 -5.54011,-0.0591 -7.67126,-0.62207 -4.96778,-1.31229 -8.03421,-3.4023 -10.71408,-7.30251 -2.19432,-3.19356 -2.68895,-6.13668 -1.42851,-8.4998 0.73211,-1.37259 1.42531,-3.67583 1.42531,-4.73579 0,-0.63263 -0.0105,-0.63493 -2.19901,-0.48048 -2.18812,0.15441 -2.20377,0.151 -3.16196,-0.6903 -1.43464,-1.25964 -2.11178,-3.26269 -2.16484,-6.4039 -0.0417,-2.46547 -0.0682,-2.56971 -0.82268,-3.23278 -0.4288,-0.37684 -0.92846,-0.68893 -1.11037,-0.69353 -0.53356,-0.0135 -0.45586,-5.79738 0.0883,-6.57431 0.23048,-0.32905 0.69757,-1.83088 1.03798,-3.3374 0.72731,-3.21881 1.9173,-6.32295 3.06142,-7.98587 0.44946,-0.65326 1.78956,-2.18061 2.97802,-3.39409 1.88596,-1.9257 2.5142,-2.376 4.93894,-3.54008 5.10418,-2.45043 7.40381,-2.82221 19.17551,-3.10005 l 7.40155,-0.1747 1.52153,-0.76807 c 0.83684,-0.42243 2.51179,-1.70083 3.72212,-2.84089 3.81497,-3.59347 6.41447,-4.66997 11.17408,-4.62741 7.19019,0.0643 15.636,0.55036 17.19792,0.98975 9.83522,2.76681 16.45625,9.84194 20.32479,21.71872 1.83311,5.62786 1.81847,5.53042 2.02732,13.49375 0.21142,8.06159 0.39694,9.15856 2.0569,12.16242 0.95451,1.72728 1.82373,2.2687 5.55238,3.45848 1.71135,0.54608 4.778411,1.76112 6.815701,2.7001 2.03729,0.93898 4.89479,2.15289 6.35,2.69758 1.45521,0.54468 5.00407,2.10959 7.88636,3.47757 4.59852,2.18253 5.77034,2.87645 9.56517,5.66429 2.37855,1.74739 5.76242,4.42375 7.5197,5.94747 1.75729,1.52373 3.70375,3.028 4.32546,3.34283 1.42453,0.72136 4.41157,1.55542 7.44891,2.07994 6.05281,1.04526 15.01306,0.0117 19.49899,-2.24908 4.76571,-2.40185 12.76673,-9.74003 14.64288,-13.42981 0.24362,-0.47912 0.95808,-1.66974 1.58768,-2.64583 1.48943,-2.30908 3.08076,-5.5075 3.97653,-7.99242 1.21964,-3.38337 1.67739,-6.33053 1.99308,-12.83229 0.16252,-3.34698 0.41086,-6.97392 0.55188,-8.05988 0.29433,-2.26664 1.5882698,-5.3348 2.5782698,-6.11353 0.77481,-0.60947 2.57231,-0.67983 3.83964,-0.1503 2.59176,1.0829 5.39388003,6.59464 6.76986,13.31626 0.45979,2.246 0.55205,3.65549 0.55205,8.43342 0,6.43876 -0.41059,9.22956 -2.26026997,15.36327 -2.94043003,9.7507 -7.17493003,18.51344 -13.02447983,26.95243 -4.93213,7.11546 -12.70523,15.38056 -19.12947,20.34026 -6.90662,5.33212 -16.5493,10.331665 -26.13805,13.552075 -1.21641,0.40854 -2.27424,0.90591 -2.35075,1.10528 -0.3146,0.81984 2.57388,8.05544 3.81561,9.55805 l 0.52461,0.63483 1.89921,-0.46543 c 2.96198,-0.72587 4.80526,-0.0814 4.80526,1.68 0,0.42044 0.20836,0.99603 0.46302,1.27908 0.45039,0.50059 0.75163,0.50866 11.04635,0.29565 9.7686,-0.20212 10.6088,-0.18467 10.91406,0.22671 0.42704,0.57546 0.41717,0.91887 -0.0446,1.55074 -0.35835,0.49037 -0.83085,0.51712 -10.45016,0.59164 l -10.07485,0.0781 0.59443,0.80451 c 0.45622,0.61745 0.57627,1.09146 0.51632,2.03862 -0.043,0.67876 -0.10249,1.76989 -0.13229,2.42473 l -0.0542,1.19063 h 9.89487 9.89488 l 0.26306,0.58901 c 0.18793,0.42079 0.1675,0.70417 -0.0715,0.99219 -0.28972,0.34909 -1.77923,0.40317 -11.104,0.40317 h -10.7694 l -0.64144,0.68721 c -0.73644,0.7889898 -1.99728,1.4917098 -4.56184,2.5424898 -1.49447,0.61233 -2.17497,0.73547 -3.96875,0.71816 -1.19075,-0.0115 -2.28407,-0.0578 -2.42959,-0.10289 h 3e-5 c -0.14552,-0.0451 -1.21708,-0.34965 -2.38125,-0.67675 -3.45544,-0.97091 -4.43096,-1.79043 -7.39692,-6.2140798 -1.59835,-2.3839 -2.73667,-3.83216 -3.01057,-3.83028 -0.24223,0.002 -2.22636,0.60255 -4.40918,1.33531 -7.07639,2.37552 -9.62207,2.94776 -13.22916,2.97377 -4.807,0.0347 -6.98797,-0.69773 -11.938521,-4.0091 -3.7072,-2.47971 -7.0914,-6.23921 -9.77304,-10.85685 -1.46226,-2.51794 -2.30393,-3.4558 -3.69287,-4.11489 -2.22168,-1.05426 -7.2612,-1.1028 -10.31433,-0.0994 -2.91041,0.95654 -4.8633,2.47243 -13.18507,10.23465 -5.80392,5.41368 -6.97778,6.20163 -9.4467,6.34114 -3.60774,0.20386 -5.80218,-0.97594 -9.8547,-5.29816 -1.63223,-1.74086 -3.92267,-3.92401 -5.08987,-4.85144 -1.16719,-0.92743 -2.77453,-2.48 -3.57187,-3.45015 -0.79734,-0.97016 -2.19778,-2.66884 -3.1121,-3.77485 -2.21409,-2.67828 -3.06467,-4.45705 -3.1814,-6.65308 -0.0759,-1.4269 0.0181,-1.930465 0.54416,-2.915445 0.75138,-1.40699 1.48777,-1.84289 3.12224,-1.84818 0.66212,-0.002 1.34673,-0.14678 1.52135,-0.32141 0.19875,-0.19875 0.3175,-1.18675 0.3175,-2.64165 0,-2.19581 0.0427,-2.37188 0.77388,-3.18823 l 0.77388,-0.86407 2.5348,0.0187 c 2.3976,0.0177 2.63754,0.0724 4.4333,1.0104 1.41037,0.73671 2.39564,1.04744 3.83203,1.20853 1.1062,0.12405 2.47258,0.4842 3.19334,0.84168 1.06822,0.52983 1.4619,0.96382 2.58866,2.85374 0.73087,1.22589 1.46381,2.27387 1.62877,2.32886 0.4594,0.15313 2.05544,-1.37213 3.13029,-2.99145 0.53056,-0.79932 1.40189,-1.73201 1.93629,-2.07264 1.64023,-1.04551 4.27963,-3.79831 4.27245,-4.45604 -0.004,-0.32662 -0.78684,-1.78449 -1.74061,-3.2397 -0.95378,-1.45521 -2.56479,-4.34247 -3.58002,-6.41615 -1.29221,-2.63942 -1.98024,-3.77031 -2.29386,-3.77031 -0.2464,0 -1.40402,0.48475 -2.5725,1.07723 -1.80765,0.91656 -2.3799,1.0801 -3.83687,1.09652 -1.72494,0.0195 -2.1895,-0.11246 -8.24017,-2.33968 l -2.02989,-0.74719 -1.36506,0.49087 c -3.17977,1.14342 -7.04959,-0.68019 -8.52596,-4.01778 -0.6899,-1.55963 -0.47927,-3.24317 0.75354,-6.02296 0.51338,-1.1576 1.14697,-2.70271 1.40798,-3.43358 0.51361,-1.43821 1.64463,-3.69858 2.20076,-4.39825 0.19036,-0.2395 0.79216,-0.68598 1.33734,-0.99219 0.86062,-0.48338 1.42706,-0.55674 4.29897,-0.55674 5.44878,0 7.10363,1.14457 8.69835,6.01616 0.24953,0.76227 0.56471,1.45457 0.70041,1.53843 0.46566,0.28779 1.16869,-0.14956 1.79351,-1.11575 0.50533,-0.78142 0.59542,-1.18649 0.469,-2.10882 -0.2059,-1.50214 -1.41388,-3.91109 -3.42833,-6.83673 m 102.031461,76.862045 c 1.52531,-0.92492 2.82844,-2.42917 2.82844,-3.26499 0,-0.38047 -0.22645,-0.32326 -1.44688,0.3655 -2.38268,1.34471 -4.80984,2.09753 -7.3421,2.27727 -2.02695,0.14388 -2.28058,0.21551 -1.99244,0.5627 0.67747,0.8163 1.87668,1.11679 4.17791,1.04687 2.05075,-0.0623 2.40033,-0.15374 3.77507,-0.98735 z m -0.0647,-8.34174 c 0.50449,-1.06723 0.66012,-1.98437 0.33672,-1.98437 -0.0964,0 -0.82063,0.20346 -1.60952,0.45213 -1.59195,0.50182 -1.56129,0.38725 -0.83013,3.10258 l 0.28813,1.07 0.65726,-0.791 c 0.36149,-0.43505 0.88239,-1.26725 1.15754,-1.84934 z m -6.18929,-2.3151 c -0.66236,-0.94848 -2.51795,-4.84714 -3.61459,-7.59441 -1.60878,-4.03026 -1.57844,-3.98111 -2.45754,-3.98111 -0.62132,0 -0.75364,0.0952 -0.64352,0.46302 0.23184,0.77438 1.26651,3.28812 1.9875,4.82865 0.37459,0.80036 0.68841,1.52324 0.69739,1.60639 0.009,0.0832 0.21303,0.34789 0.45344,0.5883 0.2404,0.24041 0.70682,0.88675 1.03648,1.43631 0.86739,1.44599 2.3529,3.24816 2.67744,3.24816 0.15533,0 0.0947,-0.26405 -0.1366,-0.59531 z m -29.67901,-8.03505 c 1.01864,-0.21446 2.50692,-0.63108 3.30729,-0.92582 1.9064,-0.70206 6.93545,-3.17573 6.77749,-3.33369 -0.0677,-0.0676 -0.99518,0.17185 -2.06118,0.53221 -5.38024,1.81881 -9.70326,2.57058 -14.71776,2.55942 -2.13905,-0.005 -4.663081,-0.11578 -5.608971,-0.2467 -4.58191,-0.63422 -5.73891,-0.80645 -6.35,-0.94525 -0.46982,-0.10671 -0.36463,0.0138 0.36303,0.41579 1.97362,1.09041 6.88155,2.11164 11.278641,2.34683 3.51139,0.18782 4.46682,0.13293 7.01146,-0.40279 z m -72.811501,-4.09002 c 0.64538,-0.70862 0.72541,-0.97232 0.61097,-2.01303 -0.17442,-1.58621 -0.86018,-2.39028 -3.18821,-3.7383 -1.18497,-0.68614 -3.80213,-1.360845 -5.11585,-1.318865 -1.11551,0.0357 -1.33154,0.777815 -0.73172,2.513795 0.38476,1.11354 0.66728,1.41575 2.29983,2.46012 1.02366,0.65484 2.0346,1.52418 2.24654,1.93188 0.76125,1.46435 2.62264,1.54325 3.87844,0.1644 z m 18.94393,-7.123375 c 3.04377,-3.05594 5.65085,-5.55625 5.79352,-5.55625 0.14266,0 0.33511,0.30171 0.42766,0.67046 0.26847,1.06967 1.22444,1.34711 2.72557,0.79099 1.76575,-0.65415 3.58342,-1.84328 4.69018,-3.06833 0.74921,-0.82929 0.94001,-1.25682 0.94001,-2.10635 0,-1.33829 -0.53855,-1.60205 -1.6274,-0.79702 -0.98688,0.72963 -1.13868,0.61455 -0.52341,-0.39679 1.13267,-1.86182 5.24804,-3.58586 10.69866,-4.48198 1.54999,-0.25483 8.79376,-0.17127 11.16361,0.12878 3.78657,0.47942 7.01146,0.62984 7.01146,0.32704 0,-0.15383 -1.0418,-0.60292 -2.31511,-0.99799 -1.27331,-0.39506 -2.85089,-0.88745 -3.50573,-1.09419 -0.65484,-0.20675 -3.02707,-0.57105 -5.27162,-0.80957 -3.48638,-0.37048 -4.59932,-0.38685 -7.63835,-0.11236 -4.25603,0.3844 -5.88774,0.88643 -10.24107,3.15086 -1.47087,0.76509 -4.75928,4.32526 -5.49782,5.95218 -0.37984,0.83675 -0.83091,1.52135 -1.00238,1.52135 -0.91825,0 -4.69494,3.31182 -9.45839,8.294145 -1.28888,1.34811 -2.13432,2.02462 -2.53018,2.02462 -0.83572,0 -1.7365,-1.07888 -3.20318,-3.836465 -1.51515,-2.84872 -2.4092,-4.10105 -2.92777,-4.10105 -0.59933,0 -0.45904,0.46186 0.5362,1.76529 0.50579,0.66241 0.9913,1.63753 1.07892,2.16694 0.22689,1.370915 1.35528,3.485245 2.31114,4.330525 0.44912,0.39717 0.86961,0.66909 0.93441,0.60428 0.0648,-0.0648 0.3488,0.17579 0.63108,0.53466 0.28229,0.35886 0.68259,0.65248 0.88956,0.65248 0.20697,0 2.86666,-2.50031 5.91043,-5.556255 z m 75.587401,4.749525 c 1.44201,-0.29817 3.27668,-0.73064 4.07704,-0.96102 3.14798,-0.90614 4.93471,-1.45794 5.82084,-1.79765 0.50932,-0.19526 1.64041,-0.61872 2.51354,-0.94102 0.87312,-0.32231 1.94469,-0.718 2.38125,-0.87932 3.58056,-1.323115 15.25184,-7.919525 16.86301,-9.530695 0.23617,-0.23617 0.50407,-0.4294 0.59533,-0.4294 0.60751,0 9.39687,-7.67789 9.39687,-8.20858 0,-0.11047 -1.81571,0.76199 -4.0349,1.93881 -7.7933,4.13274 -16.15303,7.7117 -21.70472,9.29222 -4.29543,1.22287 -9.47488,2.40181 -11.7839,2.68223 -0.95545,0.11604 -1.45935,0.31097 -1.56804,0.60659 -0.21193,0.57643 -4.06229,5.369055 -5.59456,6.963675 -0.23394,0.24345 -0.70573,0.74947 -1.04843,1.12448 l -0.62308,0.68183 h 1.04396 c 0.57417,0 2.22378,-0.24397 3.66579,-0.54215 z m -89.763271,-3.70265 c 0.91458,-0.71941 1.15016,-2.045735 0.57765,-3.252205 -1.05201,-2.21696 -4.62688,-4.67947 -7.34516,-5.05965 -1.24331,-0.17389 -1.25674,-0.16781 -1.25447,0.56804 0.001,0.4091 0.078,1.37395 0.17048,2.1441 0.15928,1.32628 0.23258,1.43694 1.38676,2.09382 1.60708,0.91463 2.6738,1.91541 2.6738,2.50852 0,1.420705 2.43749,2.061995 3.79094,0.997375 z m 21.34447,-15.295345 c 0,-0.4177 3.02734,-2.60586 4.8948,-3.53795 3.48093,-1.73743 6.64313,-2.53599 11.82245,-2.98559 1.98044,-0.17191 8.78559,0.52264 10.3364,1.05496 1.13356,0.3891 1.2525,0.21073 0.39688,-0.59519 -0.32743,-0.3084 -0.83344,-1.00713 -1.12448,-1.55273 -0.64917,-1.21697 -3.61092,-4.2615 -5.11195,-5.25484 -0.60817,-0.40247 -1.10576,-0.84203 -1.10576,-0.9768 0,-0.13477 -0.11906,-0.17145 -0.26459,-0.0815 -0.14552,0.0899 -0.26458,0.0374 -0.26458,-0.11668 0,-0.15411 -0.16151,-0.2802 -0.35891,-0.2802 -0.39142,0 -6.10049,-2.6158 -8.98014,-4.11456 -2.75072,-1.43164 -6.47938,-4.39986 -7.18203,-5.71728 -1.06105,-1.98938 -1.85609,-3.32874 -2.25225,-3.7942 -1.02851,-1.20846 -3.14486,-4.32291 -3.03793,-4.47068 0.0635,-0.0877 0.0336,-0.0975 -0.0665,-0.0217 -0.10007,0.0758 -0.48702,-0.32387 -0.8599,-0.88818 -0.37287,-0.56431 -0.98172,-1.48955 -1.353,-2.05608 -1.58422,-2.41734 -3.20758,-7.51234 -2.39357,-7.51234 0.45241,0 2.27009,-1.65003 2.56871,-2.33178 0.17126,-0.39101 1.38683,-1.69315 2.70125,-2.89364 3.54389,-3.23673 3.74517,-3.74636 4.01807,-10.17367 0.11924,-2.80836 0.35336,-5.55816 0.52027,-6.11064 0.44033,-1.45759 0.26725,-2.68452 -0.38968,-2.76229 -0.38075,-0.0451 -0.93731,0.47219 -1.98437,1.8443 -1.47802,1.93683 -6.47964,7.08189 -6.88446,7.08189 -0.12182,0 -0.38739,0.16589 -0.59014,0.36864 -1.69287,1.69287 -8.00079,5.10353 -13.21325,7.14434 -6.71959,2.63088 -9.12334,3.54993 -10.00382,3.82486 -5.57771,1.74165 -10.61046,2.67333 -14.53756,2.69122 -5.83208,0.0266 -9.66911,-0.6338 -12.98942,-2.23557 -1.75947,-0.84879 -1.84177,-0.84661 -1.84177,0.0488 0,1.40312 3.43515,5.92543 5.65671,7.44697 1.3919,0.95329 4.53122,2.03399 7.05738,2.42947 1.8934,0.29642 8.60887,0.2019 10.43695,-0.1469 0.43656,-0.0833 1.09141,-0.20792 1.45521,-0.27694 0.3638,-0.069 1.13771,-0.19725 1.71979,-0.28496 0.58208,-0.0877 2.1299,-0.44312 3.43958,-0.78983 1.30969,-0.34671 2.67891,-0.70694 3.04271,-0.80051 0.3638,-0.0936 2.09021,-0.58689 3.83646,-1.09624 1.74625,-0.50936 3.53219,-1.0202 3.96875,-1.13521 0.43656,-0.11501 1.39092,-0.43706 2.1208,-0.71566 1.49142,-0.56929 1.98024,-0.51795 1.98024,0.20799 0,0.64536 -0.8829,1.46536 -2.42867,2.25565 -0.68093,0.34813 -1.29719,0.72866 -1.36948,0.84563 -0.21024,0.34017 2.37833,4.35572 3.32895,5.16407 0.47634,0.40506 1.34233,0.86491 1.92441,1.02189 1.84814,0.49842 2.51354,0.80943 2.51354,1.17485 0,0.48463 -0.85263,0.90325 -1.83973,0.90325 -0.75813,0 -0.80323,0.0517 -0.63411,0.7276 0.10015,0.40019 0.39124,1.20386 0.64688,1.78594 0.4154,0.94583 1.57573,4.80003 2.78792,9.26042 0.544,2.00174 1.52313,4.97201 2.09322,6.35 0.89678,2.16766 2.65836,5.5147 4.35824,8.28074 0.6526,1.06191 1.31617,2.16242 1.47461,2.44558 0.67632,1.20868 1.96089,2.09388 1.96089,1.35125 z m 82.897751,-12.04499 c 0.0769,-0.20036 0.0952,-0.82544 0.0407,-1.38906 -0.51823,-5.35908 -0.78261,-7.28346 -1.02712,-7.47633 -0.3025,-0.23861 -4.91854,-1.20419 -5.00852,-1.04768 -0.0287,0.05 0.0135,1.87684 0.0938,4.05966 0.15778,4.28848 0.42797,5.29026 1.58468,5.87533 0.92778,0.46928 4.13427,0.453 4.31651,-0.0219 z m 11.29391,-1.89258 c 0.3638,-0.18179 1.70148,-0.69689 2.97262,-1.14466 2.99459,-1.05488 3.90654,-1.53936 3.90654,-2.07534 0,-0.33658 -1.90443,-4.38182 -2.25663,-4.79337 -0.0394,-0.0461 -1.41884,0.16227 -3.06535,0.46302 -1.6465,0.30074 -3.78168,0.54681 -4.74485,0.54681 -0.96317,0 -1.81604,0.0648 -1.89526,0.14404 -0.35887,0.35887 1.7676,5.86856 2.77715,7.19559 0.26976,0.35459 1.19281,0.22005 2.30578,-0.33609 z m 15.28523,-8.45451 c 0.69396,-0.62394 1.42578,-1.44091 1.62625,-1.81551 0.33812,-0.63177 0.29943,-0.76745 -0.53443,-1.87412 -0.49441,-0.65617 -1.00573,-1.19672 -1.13626,-1.20122 -0.13054,-0.005 -0.72585,0.38974 -1.32292,0.87609 -0.59707,0.48636 -1.58949,1.17096 -2.20538,1.52136 -1.24892,0.71054 -1.27964,1.1122 -0.1852,2.42159 0.33384,0.39939 0.68019,0.95684 0.76967,1.23878 0.14056,0.44286 0.26908,0.47552 0.9446,0.24003 0.43006,-0.14992 1.34971,-0.78307 2.04367,-1.407 z m -138.195531,-4.13836 c 0.84489,-0.0685 0.93571,-0.10573 0.87123,-0.35762 -0.20047,-0.78314 -2.81842,0.14738 -3.38309,1.20248 -0.78601,1.46868 -0.49286,1.61694 0.80209,0.40567 0.71586,-0.6696 1.48525,-1.23234 1.70977,-1.25053 z m 86.453081,-2.74505 c 1.12181,-2.18281 2.04454,-4.06213 2.05052,-4.17626 0.0307,-0.58649 -9.00593,-5.66283 -9.51767,-5.34656 -0.14358,0.0887 -0.26105,0.3668 -0.26105,0.61792 0,0.63016 -0.83906,2.95845 -2.07525,5.75856 -0.57124,1.29393 -0.98398,2.44485 -0.91721,2.55762 0.0668,0.11276 0.91623,0.62306 1.88767,1.13401 0.97143,0.51094 2.71532,1.52366 3.87529,2.2505 1.15998,0.72683 2.29107,1.28809 2.51354,1.24724 0.22248,-0.0409 1.32235,-1.86022 2.44416,-4.04303 z m -44.883611,-0.93751 c 0.5375,-0.33219 1.25227,-1.22479 1.85387,-2.3151 0.5385,-0.97596 1.43883,-2.45773 2.00073,-3.29283 0.5619,-0.8351 1.02164,-1.57728 1.02164,-1.64928 0,-0.35118 -3.59562,1.23287 -4.28601,1.88819 -1.53015,1.45245 -2.42772,3.88712 -1.95918,5.31434 0.23872,0.72719 0.27826,0.72877 1.36895,0.0547 z m 105.827811,-1.84399 c 2.8879,-3.74463 4.08802,-5.57652 4.08802,-6.24006 0,-0.51707 -1.48931,-2.09094 -1.9786,-2.09094 -0.0696,0 -0.54443,0.65485 -1.05515,1.45521 -1.18529,1.85752 -1.50819,2.30001 -3.51469,4.81639 -0.90951,1.14062 -1.65365,2.24082 -1.65365,2.44489 0,0.56312 1.30912,1.99914 1.82249,1.99914 0.25747,0 1.24521,-1.02785 2.29158,-2.38463 z m -77.38574,-6.14012 c 0.87514,-1.77819 1.55655,-3.45559 1.51423,-3.72755 -0.0883,-0.56734 -4.89583,-2.75564 -5.24204,-2.38607 -0.51267,0.54727 -2.655291,5.96941 -2.519971,6.3771 0.15677,0.47232 3.722191,2.90448 4.318761,2.94606 0.18582,0.013 1.05388,-1.43135 1.92902,-3.20954 z m -28.989791,-5.10411 c 1.32475,-0.37928 2.20057,-0.42481 5.29167,-0.27508 5.00863,0.24261 5.07405,0.23794 6.84949,-0.48855 l 1.55783,-0.63745 -0.77322,-0.39985 c -0.82871,-0.42854 -1.39841,-0.55859 -4.78759,-1.0929 -3.05077,-0.48095 -7.56464,-0.26322 -9.59339,0.46275 -1.3932,0.49854 -3.17066,1.59787 -3.17296,1.96242 -0.003,0.51243 1.37829,1.14523 2.24692,1.02919 0.43656,-0.0583 1.50812,-0.31056 2.38125,-0.56053 z m 112.364641,-3.43677 c 0.65623,-1.01864 1.2719598,-2.07307 1.3682798,-2.34317 0.12998,-0.36445 0.33965,-0.44979 0.81311,-0.33096 0.35088,0.0881 0.83109,0.086 1.06714,-0.005 0.59442,-0.2281 1.44299,-1.98194 1.63432,-3.37784 0.13913,-1.01505 0.0904,-1.18536 -0.38182,-1.33525 -0.2977,-0.0945 -0.96405,-0.45869 -1.48077,-0.80935 l -0.93948,-0.63755 -0.40344,1.35851 c -0.22189,0.74719 -0.40343,1.52427 -0.40343,1.72687 0,0.57611 -1.2408798,4.12878 -2.1169798,6.06098 -1.226,2.7039 -1.05739,2.64236 0.84307,-0.30767 z m -172.557351,0.48855 c 0,-0.5652 -2.23635,-4.93816 -2.58479,-5.05431 -0.2811,-0.0937 -0.97952,1.44651 -1.38967,3.0646 -0.43577,1.71918 -0.0152,2.04824 2.71769,2.12659 0.69122,0.0198 1.25677,-0.0418 1.25677,-0.13688 z m 2.52783,-2.53236 c 0.0461,-1.22053 0.12125,-2.38104 0.16704,-2.5789 0.1257,-0.54317 -1.42894,-0.78782 -2.40318,-0.37818 -0.45147,0.18982 -0.82086,0.47354 -0.82086,0.63047 0,0.48003 1.35076,3.53065 1.91489,4.32466 0.76531,1.07719 1.04444,0.58886 1.14211,-1.99805 z m 5.01279,2.30385 c 2.5632,-0.32109 2.56988,-0.32541 2.39915,-1.55022 -0.47067,-3.37659 -0.90227,-4.39836 -1.85787,-4.39836 -1.27379,0 -2.76952,2.39313 -2.98568,4.77699 -0.14331,1.58049 -0.1367,1.60041 0.4881,1.46976 0.34837,-0.0728 1.2287,-0.20702 1.9563,-0.29817 z m -14.19617,-2.29833 c -0.01,-1.24613 -0.11188,-1.4841 -1.03337,-2.40559 -1.36421,-1.36421 -1.94222,-1.2493 -2.04885,0.40732 -0.0908,1.41117 0.53556,3.02869 1.228,3.17106 0.24199,0.0497 0.76059,0.11739 1.15246,0.1503 0.69153,0.0581 0.71216,0.0192 0.70176,-1.32309 z m 23.05972,0.59082 c 0.65484,-0.18028 1.5241,-0.50009 1.93169,-0.71069 0.92742,-0.47918 0.80784,-0.99608 -0.6821,-2.94865 -0.92924,-1.21777 -1.17621,-1.39214 -1.87372,-1.32292 -0.65262,0.0648 -0.91755,0.30317 -1.41172,1.27036 -0.33458,0.65484 -0.68426,1.92584 -0.77707,2.82444 l -0.16874,1.63381 0.89552,-0.20928 c 0.49253,-0.1151 1.43129,-0.35679 2.08614,-0.53707 z m 9.87626,-3.74546 c 1.18996,-0.57854 1.26645,-0.67528 1.11857,-1.41466 -0.18702,-0.93511 -0.6257,-1.43193 -1.39522,-1.58012 -0.84719,-0.16316 -1.57048,0.93405 -2.04412,3.10086 -0.14282,0.65335 -0.0943,0.72195 0.44151,0.62446 0.33108,-0.0602 1.17674,-0.38898 1.87926,-0.73054 z m 7.38773,-3.30317 c 0.87057,-0.5611 0.95335,-0.7015 0.67572,-1.14607 -0.67827,-1.08607 -2.59025,-1.32758 -2.59679,-0.32802 -0.002,0.24486 -0.0789,0.90535 -0.17184,1.46776 -0.16249,0.98359 -0.14473,1.01539 0.46593,0.83417 0.34917,-0.10362 1.08131,-0.47614 1.62698,-0.82784 z m -26.07122,0.0956 c 0.29998,-0.32742 0.79435,-1.09142 1.09859,-1.69777 l 0.55317,-1.10245 -1.99042,-0.18652 c -1.09472,-0.10258 -2.05226,-0.12466 -2.12786,-0.0491 -0.2417,0.2417 0.19142,1.95322 0.71011,2.80616 0.59535,0.97897 1.01911,1.03437 1.75641,0.22964 z m -8.13514,-0.1894 c 0.69578,-0.69579 1.91921,-3.14057 1.72714,-3.45135 -0.17045,-0.2758 -1.53359,-0.65452 -3.23946,-0.90002 l -1.12448,-0.16184 v 0.99706 c 0,1.87329 0.92488,4.03628 1.72589,4.03628 0.21493,0 0.62483,-0.23406 0.91091,-0.52013 z m -7.88206,-0.49065 c 0.72835,-0.2955 3.41073,-4.12656 3.08196,-4.40176 -0.19731,-0.16516 -4.35078,-1.46663 -4.68056,-1.46663 -0.28595,0 -0.33538,0.50266 -0.24093,2.44985 0.15706,3.23807 0.53825,3.94647 1.83953,3.41854 z m 24.21885,-0.25931 c 0.31236,-0.19851 1.13474,-1.92436 1.13474,-2.38136 0,-0.12588 -0.26789,-0.19915 -0.59531,-0.16284 -0.32742,0.0363 -0.89297,0.0778 -1.25677,0.0921 -1.15306,0.0455 -1.36908,0.33371 -1.01816,1.35848 0.41909,1.22385 0.97716,1.57551 1.7355,1.09359 z m 8.78282,-1.78359 c 0.2526,-1.00315 0.40812,-3.29839 0.22328,-3.29517 -0.0364,6.4e-4 -0.89959,0.30539 -1.91823,0.67723 -1.01865,0.37185 -2.05633,0.74133 -2.30596,0.82107 -0.42471,0.13567 -0.42227,0.20691 0.038,1.1087 0.81478,1.59642 1.75239,2.18262 3.10302,1.94004 0.42121,-0.0757 0.64621,-0.40321 0.8599,-1.25187 z m -39.29636,-0.35214 c 0.24657,-0.27246 0.79352,-1.31361 1.21543,-2.31365 0.6783,-1.60777 0.71855,-1.84545 0.34761,-2.05304 -0.39386,-0.22041 -3.53495,-1.48793 -3.68731,-1.48793 -0.28897,0 -0.37605,2.21943 -0.14241,3.62939 0.40294,2.43166 1.29093,3.30342 2.26668,2.22523 z m 54.40972,-0.48867 c 0.35981,-0.25018 0.85933,-0.69667 1.11005,-0.99218 0.4366,-0.5146 0.42672,-0.56322 -0.23371,-1.15027 -0.83751,-0.74446 -1.05966,-0.56569 -1.53469,1.23507 -0.39241,1.48755 -0.31984,1.58757 0.65835,0.90738 z m -9.05918,-2.52168 c 0.41493,-0.50211 0.67474,-2.22856 0.36425,-2.42045 -0.2762,-0.17071 -1.31627,0.20444 -2.34887,0.84721 l -0.5855,0.36446 0.56911,0.76976 c 0.59762,0.80833 1.52728,1.0123 2.00101,0.43902 z m 14.22953,-1.84341 c 0.10224,-0.32214 0.0318,-0.62359 -0.17574,-0.75185 -0.51401,-0.31768 -0.76855,-0.0472 -0.76855,0.81664 0,0.56668 0.10208,0.73066 0.38681,0.6214 0.21274,-0.0816 0.4636,-0.39042 0.55748,-0.68619 z m -7.87637,-1.31836 c 0.40868,-0.40868 0.42411,-2.8575 0.018,-2.8575 -0.80011,0 -3.4913,2.02703 -3.23715,2.43825 0.41815,0.67658 2.66872,0.96969 3.21915,0.41925 z m 140.8545108,-1.79916 c 0.24208,-0.50933 0.62528,-2.11261 0.85157,-3.56285 l 0.41143,-2.63681 -0.64611,-1.1025 c -0.35537,-0.60638 -0.82787,-1.17226 -1.05,-1.2575 -1.44223,-0.55343 -2.17704,1.6179 -2.20419,6.5132 -0.0163,2.93485 0.0891,3.14253 1.53571,3.02585 0.46977,-0.0379 0.78901,-0.32172 1.10159,-0.97939 z M -186.85248,-134.77388 c 3.20726,-2.409 3.7419,-2.62219 9.73972,-3.88387 2.27313,-0.47816 3.43026,-0.95512 3.63734,-1.49927 0.2336,-0.61384 -0.28661,-1.53114 -0.86834,-1.53114 -0.30544,0 -0.9813,-0.32742 -1.50191,-0.7276 -0.52061,-0.40018 -1.67308,-1.1505 -2.56105,-1.66737 -1.79291,-1.04361 -2.17052,-1.72242 -1.1067,-1.98942 1.31255,-0.32943 0.38648,-0.6 -1.63711,-0.47832 -7.12748,0.4286 -11.3501,2.02099 -14.73957,5.55843 -1.15326,1.20361 -2.7862,4.18868 -2.7862,5.09327 0,0.72075 1.50836,2.4131 2.15075,2.4131 0.37476,0 0.74009,-0.50831 1.38946,-1.93327 1.22822,-2.69515 3.10911,-4.56339 6.00591,-5.96552 2.16781,-1.04928 4.23818,-1.62621 5.83583,-1.62621 1.06367,0 0.93205,0.31376 -0.37367,0.89079 -3.38976,1.49801 -4.67906,2.27084 -6.05895,3.63184 -2.18898,2.15902 -2.33328,3.85308 -0.4188,4.91632 0.92502,0.51372 1.08903,0.45388 3.29329,-1.20176 z m 45.73321,0.81243 c 4.32528,-1.56629 6.73696,-4.44772 6.73651,-8.04864 -2.3e-4,-1.85788 -0.99905,-4.37099 -2.14781,-5.40411 -1.39927,-1.25839 -3.11372,-1.7926 -5.78948,-1.80393 -2.83692,-0.012 -4.14224,0.46641 -6.18861,2.26828 -1.57273,1.38482 -3.07181,4.52278 -3.07181,6.43008 0,2.8675 1.43214,5.28544 3.84271,6.48783 1.41131,0.70397 4.77036,0.73974 6.61849,0.0705 z m -2.45379,-2.72554 c -0.99723,-0.3689 -1.52218,-1.51507 -1.55798,-3.4017 -0.0366,-1.92772 0.38984,-2.9633 1.41196,-3.429 2.12419,-0.96785 4.0415,0.7974 3.8893,3.58082 -0.0608,1.11235 -0.66137,2.56621 -1.19668,2.89705 -0.59014,0.36472 -1.9901,0.55869 -2.5466,0.35283 z m -24.14699,-3.19942 c 1.60419,-0.4733 2.11667,-0.93185 2.11667,-1.89394 0,-0.75536 -0.22406,-1.05164 -1.65365,-2.18669 -3.57987,-2.8423 -3.32119,-2.7482 -7.55485,-2.7482 -2.06585,0 -3.7485,0.0893 -3.73923,0.19844 0.009,0.10914 1.05106,0.6979 2.3151,1.30835 1.26404,0.61045 2.70759,1.45445 3.20789,1.87554 0.79816,0.67179 0.91328,0.9256 0.93925,2.07083 0.0427,1.88208 0.18688,2.01673 1.94684,1.81789 0.82277,-0.0929 1.91266,-0.29195 2.42198,-0.44222 z m 45.45098,-0.32035 c 0.68639,-0.3494 1.51726,-0.9241 1.84638,-1.27711 l 0.59841,-0.64185 -1.04777,-1.62109 -1.04776,-1.6211 -1.57914,1.63384 c -1.38652,1.43454 -1.54263,1.6993 -1.27981,2.1706 0.16463,0.29523 0.30781,0.5963 0.31816,0.66906 0.0263,0.1846 0.77153,1.32292 0.86612,1.32292 0.0426,0 0.63903,-0.28587 1.32541,-0.63527 z m -37.47056,-1.63839 c 1.36664,-0.68926 2.03689,-1.50148 2.7088,-3.28259 0.64779,-1.71719 3.42597,-4.55218 6.16224,-6.28826 3.528,-2.23841 5.90994,-2.97216 9.64848,-2.97216 4.6641,0 8.06793,1.76053 10.02825,5.18679 0.7935,1.38691 1.0034,1.55098 1.83639,1.43545 0.55274,-0.0767 2.05408,-1.2484 2.38009,-1.85757 0.95669,-1.78758 -7.94968,-5.55842 -13.12846,-5.55842 -4.36665,0 -9.79848,1.29663 -13.39127,3.19662 -0.67028,0.35447 -1.26036,0.29711 -1.26036,-0.1225 0,-0.47446 1.35832,-1.47433 3.10886,-2.28845 0.76398,-0.3553 1.38906,-0.73696 1.38906,-0.84813 0,-0.34915 -1.39021,-0.22119 -3.19059,0.29367 -2.80494,0.80214 -3.83471,1.4265 -6.29287,3.81544 l -1.41367,1.37386 1.81054,0.35701 c 1.81184,0.35727 2.73659,0.87581 2.73659,1.53449 0,0.19296 -0.26815,0.41813 -0.59589,0.50039 -0.73751,0.1851 -3.72098,-0.48916 -4.54055,-1.02616 -0.55449,-0.36332 -0.72535,-0.3394 -2.02754,0.2838 -0.78211,0.37431 -1.71432,0.75873 -2.07158,0.85428 l -0.64955,0.17371 0.90766,0.62318 c 1.89742,1.30272 2.54207,2.08399 2.41787,2.93025 -0.0638,0.43474 -0.22135,0.85554 -0.35009,0.93511 -0.34123,0.21088 -0.28619,1.01383 0.0957,1.39568 0.44278,0.44278 2.10029,0.1522 3.68192,-0.64549 z"
       id="path217" /><path
       style="fill:#d4aa00;fill-opacity:1;stroke:none;stroke-width:1.10051;stroke-linejoin:round;stroke-dasharray:none;stroke-opacity:1"
       d="m -255.09201,132.75807 c -0.4225,0.14644 -0.93164,0.38059 -1.13144,0.52036 -0.90202,0.63098 -3.62904,0.84377 -5.35437,0.41781 -0.86479,-0.21351 -1.61415,-0.23413 -3.0519,-0.084 -1.16745,0.1219 -1.50463,0.053 -1.33159,-0.27216 0.2141,-0.40229 1.68599,-0.59835 4.78496,-0.63741 4.18507,-0.0527 5.21141,-0.42403 5.12777,-1.85502 -0.0166,-0.28317 -0.70607,-2.77979 -1.53225,-5.548 -2.20929,-7.40246 -3.31658,-11.57164 -4.62658,-17.42004 -2.55716,-11.416365 -3.72103,-20.879394 -3.4794,-28.289863 0.2206,-6.765424 1.5497,-11.582472 4.10726,-14.885863 0.52644,-0.679961 1.11165,-1.364915 1.30046,-1.522119 0.33306,-0.277299 0.3251,-0.225181 -0.2665,1.746784 -4.10967,13.698611 -3.2987,32.073684 2.35238,53.300571 0.37898,1.42356 1.30066,4.65678 2.04815,7.18497 1.43949,4.86854 1.96198,6.81325 1.87463,6.97738 -0.0294,0.0552 -0.3991,0.22019 -0.82158,0.36661 z"
       id="path218" /><path
       style="fill:#c8c4b7;fill-opacity:1;stroke:none;stroke-width:1.55636;stroke-linejoin:round;stroke-dasharray:none;stroke-opacity:1"
       d="m -259.57471,147.41086 c -0.16619,0.13904 -0.77888,0.34815 -1.36154,0.46467 -0.58268,0.11656 -1.72932,0.55228 -2.54811,0.9683 -1.85511,0.94258 -2.39801,1.09088 -3.42543,0.93573 -1.97503,-0.29827 -2.29872,-0.93507 -1.25232,-2.46366 1.42221,-2.07755 4.31818,-4.15628 6.01711,-4.31909 1.18904,-0.11394 2.43065,0.3991 2.89595,1.1966 0.62392,1.06939 0.47422,2.54824 -0.32566,3.21745 z"
       id="path219" /><path
       style="fill:#c8c4b7;fill-opacity:1;stroke:none;stroke-width:1.55636;stroke-linejoin:round;stroke-dasharray:none;stroke-opacity:1"
       d="m -263.61051,140.27058 c -0.4108,0.16514 -0.81687,0.18928 -1.05474,0.0627 -0.46256,-0.24617 -1.79342,0.17927 -3.56502,1.13968 -1.35242,0.73316 -1.36969,0.7321 -3.66694,-0.22983 l -1.22662,-0.51358 0.6169,-0.94262 c 1.29018,-1.97138 5.04901,-4.03778 7.48522,-4.115 1.6131,-0.0511 2.61204,0.66903 2.86207,2.06325 0.16196,0.90312 -0.56933,2.18106 -1.45087,2.53541 z"
       id="path220" /></g></svg>
