<?xml version="1.0" encoding="UTF-8" standalone="no"?>
<!-- Created with Inkscape (http://www.inkscape.org/) -->

<svg
   width="97.066681mm"
   height="71.505325mm"
   viewBox="0 0 97.066681 71.505325"
   version="1.1"
   id="svg1"
   xml:space="preserve"
   inkscape:export-filename="bittikartta.svg"
   inkscape:export-xdpi="96"
   inkscape:export-ydpi="96"
   xmlns:inkscape="http://www.inkscape.org/namespaces/inkscape"
   xmlns:sodipodi="http://sodipodi.sourceforge.net/DTD/sodipodi-0.dtd"
   xmlns="http://www.w3.org/2000/svg"
   xmlns:svg="http://www.w3.org/2000/svg"><sodipodi:namedview
     id="namedview1"
     pagecolor="#ffffff"
     bordercolor="#000000"
     borderopacity="0.25"
     inkscape:showpageshadow="2"
     inkscape:pageopacity="0.0"
     inkscape:pagecheckerboard="0"
     inkscape:deskcolor="#d1d1d1"
     inkscape:document-units="mm" /><defs
     id="defs1" /><g
     inkscape:label="Taso 1"
     inkscape:groupmode="layer"
     id="layer1"
     transform="translate(-18.47054,-42.375185)"><path
       style="fill:#668000;stroke:#000000;stroke-width:2.5;stroke-dasharray:none;stroke-opacity:1"
       d="m 73.279326,107.73534 -10.165789,2.74426 c -6.511493,1.75778 -9.26008,2.14335 -15.18307,2.15065 -4.73918,0.006 -5.54011,-0.0591 -7.67126,-0.62207 -4.96778,-1.31229 -8.03421,-3.4023 -10.71408,-7.30251 -2.19432,-3.19356 -2.68895,-6.136683 -1.42851,-8.499803 0.73211,-1.37259 1.42531,-3.67583 1.42531,-4.73579 0,-0.63263 -0.0105,-0.63493 -2.19901,-0.48048 -2.18812,0.15441 -2.20377,0.151 -3.16196,-0.6903 -1.43464,-1.25964 -2.11178,-3.26269 -2.16484,-6.4039 -0.0417,-2.46547 -0.0682,-2.56971 -0.82268,-3.23278 -0.4288,-0.37684 -0.92846,-0.68893 -1.11037,-0.69353 -0.53356,-0.0135 -0.45586,-5.797375 0.0883,-6.574309 0.23048,-0.329054 0.69757,-1.830883 1.03798,-3.337398 0.72731,-3.218808 1.9173,-6.322955 3.06142,-7.985873 0.44946,-0.653262 1.78956,-2.180605 2.97802,-3.394094 1.88596,-1.925696 2.5142,-2.375997 4.93894,-3.540076 5.10418,-2.450432 7.40381,-2.822206 19.17551,-3.100054 l 7.40155,-0.174699 1.52153,-0.768065 c 0.83684,-0.422435 2.51179,-1.700835 3.72212,-2.840887 3.81497,-3.59347 6.41447,-4.669976 11.17408,-4.627415 7.19019,0.0643 15.636,0.550358 17.19792,0.989752 9.835223,2.766812 16.456253,9.84194 20.324793,21.718721 1.83311,5.627853 3.65492,39.45735 -4.30261,39.82623 l -35.811321,1.66006 m 10.635168,-5.10604 c 0.45241,0 2.27009,-1.65003 2.56871,-2.33178 0.17126,-0.391013 1.38683,-1.693153 2.70125,-2.893643 3.54389,-3.23673 3.74517,-3.74636 4.01807,-10.17367 0.11924,-2.80836 0.35336,-5.55816 0.52027,-6.11064 0.44033,-1.45759 0.26725,-2.68452 -0.38968,-2.76229 -0.38075,-0.0451 -0.93731,0.47219 -1.98437,1.8443 -1.47802,1.93683 -6.47964,7.08189 -6.88446,7.08189 -0.12182,0 -0.38739,0.16589 -0.59014,0.36864 -1.69287,1.69287 -8.00079,5.10353 -13.21325,7.14434 -6.71959,2.63088 -9.12334,3.54993 -10.00382,3.82486 -5.57771,1.741653 -10.61046,2.673333 -14.53756,2.691223 -5.83208,0.0266 -9.66911,-0.6338 -12.98942,-2.235573 -1.75947,-0.84879 -1.84177,-0.84661 -1.84177,0.0488 0,1.403123 3.43515,5.925433 5.65671,7.446973 1.3919,0.95329 4.53122,2.03399 7.05738,2.42947 1.8934,0.29642 8.60887,0.2019 10.43695,-0.1469 0.43656,-0.0833 1.09141,-0.20792 1.45521,-0.27694 0.3638,-0.069 1.13771,-0.19725 1.71979,-0.28496 0.58208,-0.0877 2.1299,-0.44312 3.43958,-0.78983 1.30969,-0.34671 2.67891,-0.70694 3.04271,-0.80051 0.3638,-0.0936 2.09021,-0.58689 3.83646,-1.09624 1.74625,-0.50936 3.53219,-1.0202 3.96875,-1.13521 0.43656,-0.11501 1.39092,-0.43706 2.1208,-0.71566 1.49142,-0.56929 1.98024,-0.51795 1.98024,0.20799 0,0.64536 -0.8829,1.46536 -2.42867,2.25565 -0.68093,0.34813 -1.29719,0.72866 -1.36948,0.84563 z m -40.98454,-3.347903 c 0,-0.5652 -2.23635,-4.93816 -2.58479,-5.05431 -0.2811,-0.0937 -0.97952,1.44651 -1.38967,3.0646 -0.43577,1.71918 -0.0152,2.04824 2.71769,2.12659 0.69122,0.0198 1.25677,-0.0418 1.25677,-0.13688 z m 2.52783,-2.53236 c 0.0461,-1.22053 0.12125,-2.38104 0.16704,-2.5789 0.1257,-0.54317 -1.42894,-0.78782 -2.40318,-0.37818 -0.45147,0.18982 -0.82086,0.47354 -0.82086,0.63047 0,0.48003 1.35076,3.53065 1.91489,4.32466 0.76531,1.07719 1.04444,0.58886 1.14211,-1.99805 z m 5.01279,2.30385 c 2.5632,-0.32109 2.56988,-0.32541 2.39915,-1.55022 -0.47067,-3.37659 -0.90227,-4.39836 -1.85787,-4.39836 -1.27379,0 -2.76952,2.39313 -2.98568,4.77699 -0.14331,1.58049 -0.1367,1.60041 0.4881,1.46976 0.34837,-0.0728 1.2287,-0.20702 1.9563,-0.29817 z m -14.19617,-2.29833 c -0.01,-1.24613 -0.11188,-1.4841 -1.03337,-2.40559 -1.36421,-1.36421 -1.94222,-1.2493 -2.04885,0.40732 -0.0908,1.41117 0.53556,3.02869 1.228,3.17106 0.24199,0.0497 0.76059,0.11739 1.15246,0.1503 0.69153,0.0581 0.71216,0.0192 0.70176,-1.32309 z m 23.05972,0.59082 c 0.65484,-0.18028 1.5241,-0.50009 1.93169,-0.71069 0.92742,-0.47918 0.80784,-0.99608 -0.6821,-2.94865 -0.92924,-1.21777 -1.17621,-1.39214 -1.87372,-1.32292 -0.65262,0.0648 -0.91755,0.30317 -1.41172,1.27036 -0.33458,0.65484 -0.68426,1.92584 -0.77707,2.82444 l -0.16874,1.63381 0.89552,-0.20928 c 0.49253,-0.1151 1.43129,-0.35679 2.08614,-0.53707 z m 9.87626,-3.74546 c 1.18996,-0.57854 1.26645,-0.67528 1.11857,-1.41466 -0.18702,-0.93511 -0.6257,-1.43193 -1.39522,-1.58012 -0.84719,-0.16316 -1.57048,0.93405 -2.04412,3.10086 -0.14282,0.65335 -0.0943,0.72195 0.44151,0.62446 0.33108,-0.0602 1.17674,-0.38898 1.87926,-0.73054 z m 7.38773,-3.30317 c 0.87057,-0.5611 0.95335,-0.7015 0.67572,-1.14607 -0.67827,-1.08607 -2.59025,-1.32758 -2.59679,-0.32802 -0.002,0.24486 -0.0789,0.90535 -0.17184,1.46776 -0.16249,0.98359 -0.14473,1.01539 0.46593,0.83417 0.34917,-0.10362 1.08131,-0.47614 1.62698,-0.82784 z m -26.07122,0.0956 c 0.29998,-0.32742 0.79435,-1.09142 1.09859,-1.69777 l 0.55317,-1.10245 -1.99042,-0.18652 c -1.09472,-0.10258 -2.05226,-0.12466 -2.12786,-0.0491 -0.2417,0.2417 0.19142,1.95322 0.71011,2.80616 0.59535,0.97897 1.01911,1.03437 1.75641,0.22964 z m -8.13514,-0.1894 c 0.69578,-0.69579 1.91921,-3.14057 1.72714,-3.45135 -0.17045,-0.2758 -1.53359,-0.65452 -3.23946,-0.90002 l -1.12448,-0.16184 v 0.99706 c 0,1.87329 0.92488,4.03628 1.72589,4.03628 0.21493,0 0.62483,-0.23406 0.91091,-0.52013 z m -7.88206,-0.49065 c 0.72835,-0.2955 3.41073,-4.12656 3.08196,-4.40176 -0.19731,-0.16516 -4.35078,-1.46663 -4.68056,-1.46663 -0.28595,0 -0.33538,0.50266 -0.24093,2.44985 0.15706,3.23807 0.53825,3.94647 1.83953,3.41854 z m 24.21885,-0.25931 c 0.31236,-0.19851 1.13474,-1.92436 1.13474,-2.38136 0,-0.12588 -0.26789,-0.19915 -0.59531,-0.16284 -0.32742,0.0363 -0.89297,0.0778 -1.25677,0.0921 -1.15306,0.0455 -1.36908,0.33371 -1.01816,1.35848 0.41909,1.22385 0.97716,1.57551 1.7355,1.09359 z m 8.78282,-1.78359 c 0.2526,-1.00315 0.40812,-3.29839 0.22328,-3.29517 -0.0364,6.4e-4 -0.89959,0.30539 -1.91823,0.67723 -1.01865,0.37185 -2.05633,0.74133 -2.30596,0.82107 -0.42471,0.13567 -0.42227,0.20691 0.038,1.1087 0.81478,1.59642 1.75239,2.18262 3.10302,1.94004 0.42121,-0.0757 0.64621,-0.40321 0.8599,-1.25187 z m -39.29636,-0.35214 c 0.24657,-0.27246 0.79352,-1.31361 1.21543,-2.31365 0.6783,-1.60777 0.71855,-1.84545 0.34761,-2.05304 -0.39386,-0.22041 -3.53495,-1.48793 -3.68731,-1.48793 -0.28897,0 -0.37605,2.21943 -0.14241,3.62939 0.40294,2.43166 1.29093,3.30342 2.26668,2.22523 z m 54.40972,-0.48867 c 0.35981,-0.25018 0.85933,-0.69667 1.11005,-0.99218 0.4366,-0.5146 0.42672,-0.56322 -0.23371,-1.15027 -0.83751,-0.74446 -1.05966,-0.56569 -1.53469,1.23507 -0.39241,1.48755 -0.31984,1.58757 0.65835,0.90738 z m -9.05918,-2.52168 c 0.41493,-0.50211 0.67474,-2.22856 0.36425,-2.42045 -0.2762,-0.17071 -1.31627,0.20444 -2.34887,0.84721 l -0.5855,0.36446 0.56911,0.76976 c 0.59762,0.80833 1.52728,1.0123 2.00101,0.43902 z m 14.22953,-1.84341 c 0.10224,-0.32214 0.0318,-0.62359 -0.17574,-0.75185 -0.51401,-0.31768 -0.76855,-0.0472 -0.76855,0.81664 0,0.56668 0.10208,0.73066 0.38681,0.6214 0.21274,-0.0816 0.4636,-0.39042 0.55748,-0.68619 z m -7.87637,-1.31836 c 0.40868,-0.40868 0.42411,-2.8575 0.018,-2.8575 -0.80011,0 -3.4913,2.02703 -3.23715,2.43825 0.41815,0.67658 2.66872,0.96969 3.21915,0.41925 z m 5.48703,-13.387044 c 4.32528,-1.566287 6.73696,-4.447713 6.73651,-8.048635 -2.3e-4,-1.85788 -0.99905,-4.370991 -2.14781,-5.404107 -1.39927,-1.258396 -3.11372,-1.7926 -5.78948,-1.803936 -2.83692,-0.01202 -4.14224,0.466414 -6.18861,2.268285 -1.57273,1.384816 -3.07181,4.522774 -3.07181,6.430079 0,2.867497 1.43214,5.285441 3.84271,6.48783 1.41131,0.703964 4.77036,0.739736 6.61849,0.07048 z m -2.45379,-2.725537 c -0.99723,-0.3689 -1.52218,-1.515071 -1.55798,-3.401702 -0.0366,-1.927712 0.38984,-2.963293 1.41196,-3.429 2.12419,-0.967845 4.0415,0.797401 3.8893,3.580825 -0.0608,1.112348 -0.66137,2.566205 -1.19668,2.897045 -0.59014,0.364728 -1.9901,0.558693 -2.5466,0.352832 z"
       id="path134"
       sodipodi:nodetypes="cscsssssscsssssssscssssssccsssssssssscsssssssscsssssccssssssssssssssscscsccscssscsscsssssscsssccsscscscscccsscsscssssscsscsccssssscsssssssssssssssscssssscsssssscssssssscssssc" /><path
       id="path203"
       style="fill:#000000;fill-opacity:1;stroke:#000000;stroke-width:2.5;stroke-linejoin:round;stroke-dasharray:none;stroke-opacity:1"
       d="M 91.180998,71.818355 C 71.760677,80.674427 57.51974,92.493371 23.106083,79.39257 c -1.505286,-0.573042 -0.759236,10.682107 1.193209,10.924398 2.565592,0.31838 1.275734,0.815352 4.789372,0.561206 2.792084,-0.201956 -2.230026,6.078783 0.939994,7.052799 5.415128,1.663845 9.870032,2.984237 18.461405,2.524907 18.626726,-0.2306 34.235129,-10.165444 44.464956,-22.145993 1.076534,-1.260771 -1.378927,-4.227587 -1.774021,-6.491532 z m 2.19716,5.527645 c 1.349657,1.827918 3.921246,4.13188 3.921246,4.13188 z"
       sodipodi:nodetypes="csssscscccc" /><path
       style="fill:#e9ddaf;stroke:none;stroke-width:0.338338"
       d="m 166.60271,412.43329 c -7.07714,-0.63886 -18.09472,-3.76393 -25.26336,-7.16579 -6.53469,-3.10102 -13.85472,-10.31073 -20.61208,-20.30142 -3.56205,-5.26647 -4.6641,-7.6861 -4.67147,-10.25659 -0.006,-1.9778 0.0169,-2.02856 0.87596,-1.97299 0.48498,0.0314 2.69961,0.88881 4.92141,1.90543 13.41879,6.13995 24.10232,8.22031 44.10169,8.58773 11.29656,0.20754 17.56084,-0.22897 27.64473,-1.92638 10.78844,-1.816 24.96393,-5.34066 34.44032,-8.5634 9.46824,-3.21997 40.01137,-15.21923 48.31071,-18.97948 16.3386,-7.40267 32.09645,-16.40828 37.68892,-21.53922 0.77831,-0.71407 1.98869,-1.53797 2.68974,-1.83089 0.83872,-0.35044 3.95246,-3.21904 9.10476,-8.38795 8.59398,-8.62168 12.82865,-13.24326 17.65014,-19.26275 5.28576,-6.59914 7.02141,-7.47786 8.37436,-4.23977 0.65603,1.57008 0.65566,3.86674 -0.001,6.6529 -1.05977,4.496 -1.5799,10.00817 -2.34922,24.89614 -0.63403,12.26992 -1.05158,16.43897 -2.03615,20.33038 -1.44302,5.70342 -3.30195,8.47333 -9.96225,14.84436 -7.91225,7.5686 -11.86886,11.72131 -13.43988,14.10597 -1.6371,2.48496 -6.4427,7.20204 -8.28382,8.13123 -0.62242,0.31413 -8.66815,3.41496 -17.87941,6.89075 -9.21125,3.47578 -18.5463,7.00279 -20.74454,7.83779 -2.19824,0.835 -4.06605,1.44894 -4.15067,1.36431 -0.0846,-0.0846 0.80042,-0.65795 1.96677,-1.27405 4.89279,-2.5845 8.18292,-5.13344 9.25289,-7.16843 0.6499,-1.23608 0.60671,-3.14093 -0.087,-3.83459 -0.82716,-0.82716 -2.87197,-0.45791 -8.57636,1.54874 -6.09729,2.14486 -34.78563,10.37134 -47.07946,13.5002 -5.14982,1.31066 -11.62054,2.77025 -14.37937,3.24353 -2.75883,0.47328 -6.53858,1.15545 -8.39944,1.51592 -1.86086,0.36048 -4.9059,0.81883 -6.76676,1.01856 -4.36819,0.46883 -28.11689,0.71099 -32.34012,0.32976 z"
       id="path179"
       transform="scale(0.26458333)" /><path
       style="fill:#c8c4b7;stroke:none;stroke-width:0.338338"
       d="m 302.30513,257.77367 c -1.39564,-0.15981 -3.54126,-0.59391 -4.76803,-0.96468 -5.13974,-1.55339 -10.83646,-6.67817 -13.62589,-12.25788 -2.29075,-4.58221 -2.75221,-6.64155 -2.75221,-12.28198 0,-5.68161 0.5058,-7.65072 3.56323,-13.87186 2.46456,-5.01477 5.58106,-9.20252 8.84015,-11.8788 6.94745,-5.70508 10.64821,-7.13 19.4004,-7.46986 11.66686,-0.45303 19.29535,1.75723 24.71333,7.16037 4.55741,4.54493 7.67408,12.6529 7.67641,19.97007 0.002,5.92946 -1.29232,10.16444 -4.65985,15.24836 -4.37881,6.61062 -13.64483,12.92534 -22.53699,15.35877 -4.49464,1.23 -10.47731,1.60272 -15.85055,0.98749 z m 16.10911,-11.96104 c 2.42814,-0.72442 3.31873,-1.54805 4.69301,-4.34017 4.02679,-8.18121 2.07783,-17.99449 -4.23392,-21.31847 -1.69233,-0.89123 -2.0844,-0.96278 -4.58715,-0.83705 -3.65505,0.18361 -5.90985,1.3823 -7.48346,3.97832 -1.54707,2.55224 -1.89952,4.72542 -1.70094,10.48758 0.13576,3.93916 0.32175,5.34644 0.937,7.08968 0.87792,2.48747 2.97076,4.85519 4.78431,5.41271 1.43166,0.44012 5.3494,0.19622 7.59115,-0.4726 z"
       id="path180"
       transform="scale(0.26458333)" /><path
       style="fill:#c8c4b7;stroke:none;stroke-width:0.338338"
       d="m 279.09255,342.48278 c 0.66684,-6.62368 0.80487,-7.32378 1.56527,-7.93952 0.97706,-0.79117 3.46883,-0.77799 5.23791,0.0277 1.4684,0.66876 3.89089,3.12016 3.89089,3.93732 0,0.27859 -0.30975,0.81628 -0.68834,1.19487 -1.73651,1.73651 -7.9804,5.06341 -9.50296,5.06341 -0.70171,0 -0.72297,-0.0966 -0.50277,-2.28379 z"
       id="path181"
       transform="scale(0.26458333)" /><path
       style="fill:#c8c4b7;stroke:none;stroke-width:0.338338"
       d="m 306.80173,328.10341 c 0.24585,-2.2642 1.63731,-7.02814 2.38697,-8.17226 0.31651,-0.48306 0.88558,-0.87828 1.2646,-0.87828 0.7966,0 4.37034,3.24395 4.37034,3.96703 0,1.03112 -6.72032,6.85979 -7.90918,6.85979 -0.16808,0 -0.21881,-0.79933 -0.11273,-1.77628 z"
       id="path182"
       transform="scale(0.26458333)" /><path
       style="fill:#c8c4b7;stroke:none;stroke-width:0.338338"
       d="m 326.20245,314.41701 c -0.11751,-0.11751 -0.21365,-1.14882 -0.21365,-2.2918 0,-2.54047 0.51783,-3.42063 1.82018,-3.09376 1.67638,0.42074 1.81788,2.67975 0.27467,4.38497 -0.7276,0.80399 -1.60899,1.27279 -1.8812,1.00059 z"
       id="path183"
       transform="scale(0.26458333)" /><path
       style="fill:#c8c4b7;stroke:none;stroke-width:0.338338"
       d="m 291.45782,307.44239 c -1.84183,-0.51631 -3.75758,-1.5846 -3.96671,-2.21199 -0.0829,-0.24855 0.81844,-1.39323 2.00287,-2.54373 3.66142,-3.55656 9.30757,-6.89633 10.18143,-6.02247 0.62133,0.62133 0.91986,4.13072 0.57965,6.81403 -0.45491,3.58795 -1.12124,4.20812 -4.63754,4.31625 -1.43918,0.0442 -3.31104,-0.11419 -4.1597,-0.35209 z"
       id="path184"
       transform="scale(0.26458333)" /><path
       style="fill:#c8c4b7;stroke:none;stroke-width:0.338338"
       d="m 270.59691,319.37775 c -0.8973,-0.45468 -1.99962,-1.4937 -2.96979,-2.79926 l -1.54285,-2.07619 0.7706,-0.59762 c 1.56263,-1.21185 7.07984,-3.73736 8.51898,-3.89957 1.42815,-0.16097 1.49315,-0.12837 1.70974,0.85775 0.45014,2.0495 -0.98437,7.40091 -2.26784,8.46013 -0.97525,0.80485 -2.69453,0.82716 -4.21884,0.0548 z"
       id="path185"
       transform="scale(0.26458333)" /><path
       style="fill:#c8c4b7;stroke:none;stroke-width:0.338338"
       d="m 243.58449,335.50493 c -1.01462,-0.47247 -2.28705,-1.46918 -3.12727,-2.44965 -1.52042,-1.7742 -4.39221,-7.08425 -4.02819,-7.44827 0.42929,-0.42929 16.6526,-6.13152 16.94833,-5.95706 0.3858,0.22759 -0.009,6.39567 -0.64179,10.02364 -0.93295,5.34993 -1.97522,6.63664 -5.37143,6.63122 -1.45744,-0.002 -2.57462,-0.23876 -3.77965,-0.79988 z"
       id="path186"
       transform="scale(0.26458333)" /><path
       style="fill:#c8c4b7;stroke:none;stroke-width:0.338338"
       d="m 250.29618,356.36828 c -0.12209,-0.31816 0.0967,-1.80262 0.48608,-3.2988 2.03676,-7.82523 4.40238,-10.86135 7.74682,-9.94256 2.53071,0.69524 4.5081,3.71317 4.60214,7.02389 0.0417,1.4692 -0.65451,2.05938 -4.64088,3.93389 -2.44674,1.15054 -7.12792,2.86204 -7.82803,2.86204 -0.0793,0 -0.24404,-0.26031 -0.36613,-0.57846 z"
       id="path187"
       transform="scale(0.26458333)" /><path
       style="fill:#c8c4b7;stroke:none;stroke-width:0.338338"
       d="m 210.61549,370.39202 c 0,-1.89812 1.17462,-9.18362 1.86444,-11.56404 1.97962,-6.83123 4.75984,-9.87103 8.40301,-9.18756 1.51054,0.28338 4.4161,3.37023 7.50021,7.96821 2.27309,3.38886 2.74204,4.54781 2.39678,5.92341 -0.40621,1.61848 -4.59432,3.38431 -13.2285,5.57752 -7.24957,1.8415 -6.93594,1.7835 -6.93594,1.28246 z"
       id="path188"
       transform="scale(0.26458333)" /><path
       style="fill:#c8c4b7;stroke:none;stroke-width:0.338338"
       d="m 215.2115,337.97939 c -1.17138,-1.02849 -2.28628,-3.38883 -2.73797,-5.79657 -0.19262,-1.02677 -0.0992,-1.29183 0.66815,-1.89542 0.89311,-0.70252 1.87445,-0.87753 6.94728,-1.23897 3.5806,-0.25511 3.69781,-0.12068 2.57615,2.95472 -1.15939,3.17886 -2.97032,6.09766 -4.10355,6.61399 -1.35716,0.61836 -2.07509,0.48169 -3.35006,-0.63775 z"
       id="path189"
       transform="scale(0.26458333)" /><path
       style="fill:#c8c4b7;stroke:none;stroke-width:0.338338"
       d="m 178.92244,375.35588 c -0.12865,-0.33526 -0.0631,-2.31909 0.14576,-4.40851 0.96311,-9.63658 6.25436,-18.39334 11.11679,-18.39776 2.55738,-0.002 3.9574,1.93859 5.21359,7.22783 0.93296,3.92825 2.00888,11.18639 1.78509,12.04217 -0.36732,1.40462 -1.43073,1.69015 -11.43603,3.07069 -2.79129,0.38514 -5.41622,0.78461 -5.83318,0.8877 -0.53288,0.13176 -0.8276,0.006 -0.99202,-0.42212 z"
       id="path190"
       transform="scale(0.26458333)" /><path
       style="fill:#c8c4b7;stroke:none;stroke-width:0.338338"
       d="m 183.8404,343.40749 c -1.4792,-0.86388 -3.95072,-6.1291 -4.64826,-9.90243 -0.5196,-2.81081 -0.40397,-2.94869 2.47288,-2.94869 2.26181,0 7.89833,0.43506 11.26355,0.86939 l 1.42917,0.18445 -1.57454,2.94105 c -4.13866,7.73049 -6.63587,10.20353 -8.9428,8.85623 z"
       id="path191"
       transform="scale(0.26458333)" /><path
       style="fill:#c8c4b7;stroke:none;stroke-width:0.338338"
       d="m 165.7715,374.28657 c -1.09705,-1.15022 -5.86551,-10.80259 -7.13077,-14.43419 l -0.93266,-2.67695 1.16294,-0.97168 c 2.05199,-1.71452 5.92109,-2.42388 8.8235,-1.6177 0.67768,0.18824 1.39073,0.53332 1.58455,0.76686 0.35212,0.42428 -0.31631,14.6413 -0.81952,17.43062 -0.47511,2.63355 -1.21513,3.04734 -2.68804,1.50304 z"
       id="path192"
       transform="scale(0.26458333)" /><path
       style="fill:#c8c4b7;stroke:none;stroke-width:0.338338"
       d="m 149.30058,375.52736 c -3.90333,-0.57204 -5.19601,-1.88483 -4.91437,-4.99084 0.33164,-3.65733 4.25683,-13.92812 5.32292,-13.92812 0.72816,0 6.47643,10.51108 8.76813,16.03306 0.88482,2.13204 1.01663,2.72633 0.65543,2.95528 -0.5652,0.35827 -7.23517,0.3112 -9.83211,-0.0694 z"
       id="path193"
       transform="scale(0.26458333)" /><path
       style="fill:#c8c4b7;stroke:none;stroke-width:0.338338"
       d="m 153.21101,342.63996 c -1.65563,-0.92837 -3.61939,-4.64982 -4.63406,-8.78185 -0.73531,-2.99434 -1.14619,-9.39183 -0.6032,-9.39183 2.58057,0 12.18492,2.01772 14.51906,3.05022 1.44848,0.64073 1.51159,0.72678 1.33428,1.81942 -0.53968,3.32561 -5.2352,11.14365 -7.6559,12.74706 -1.66437,1.10242 -1.90629,1.14794 -2.96018,0.55698 z"
       id="path194"
       transform="scale(0.26458333)" /><path
       style="fill:#c8c4b7;stroke:none;stroke-width:0.338338"
       d="m 128.86614,370.51281 c -1.97861,-0.33431 -3.04215,-1.14915 -4.02092,-3.08065 -2.35934,-4.65594 -2.42749,-12.2115 -0.12304,-13.64146 0.38769,-0.24056 0.8908,-0.20228 1.6895,0.12855 1.60845,0.66625 6.22726,5.18462 7.01624,6.86367 0.74803,1.59191 1.19369,6.36098 0.79554,8.51316 l -0.25037,1.35335 -1.85645,0.0495 c -1.02105,0.0272 -2.48378,-0.0565 -3.2505,-0.18608 z"
       id="path195"
       transform="scale(0.26458333)" /><path
       style="fill:#c8c4b7;stroke:none;stroke-width:0.338338"
       d="m 123.50156,338.88454 c -1.50458,-1.50457 -2.15803,-5.25791 -2.42186,-13.91075 -0.25549,-8.37969 -0.49013,-8.03257 4.46085,-6.59945 4.86289,1.40763 12.715,3.98268 13.30847,4.36445 0.67391,0.43351 0.31363,1.5006 -1.55771,4.61364 -3.00148,4.99306 -7.80048,10.91719 -9.59586,11.84562 -1.4743,0.76239 -3.25079,0.62959 -4.19389,-0.31351 z"
       id="path196"
       transform="scale(0.26458333)" /><path
       style="fill:#d4aa00;stroke:none;stroke-width:0.338338"
       d="m 98.92682,330.5582 c -1.490655,-1.567 -2.707794,-4.96898 -3.350592,-9.3651 -0.504002,-3.44689 -0.334956,-11.74906 0.251154,-12.33462 0.328967,-0.32866 1.024191,-0.18462 3.322263,0.68831 5.992235,2.27617 11.009405,4.53152 11.303625,5.08127 0.42435,0.79291 -0.90696,4.637 -3.40389,9.82861 -2.2767,4.7337 -3.27437,6.20724 -4.70278,6.9459 -1.47899,0.76481 -2.01487,0.6325 -3.41978,-0.84437 z"
       id="path197"
       transform="scale(0.26458333)" /><path
       style="fill:#d4aa00;stroke:none;stroke-width:0.338338"
       d="m 135.49278,257.91366 c -2.30486,-1.14856 -4.50928,-3.32683 -5.06218,-5.00214 -1.1554,-3.50089 0.55484,-7.41985 5.46579,-12.52464 5.15815,-5.36176 9.41662,-8.11841 20.23226,-13.09701 6.08312,-2.80016 7.44786,-3.6021 7.45365,-4.37988 0.006,-0.83401 -2.08002,-1.06674 -5.82208,-0.64948 -10.1612,1.13304 -23.15591,6.83145 -30.72118,13.47178 -4.81036,4.22224 -7.79569,8.27772 -11.32786,15.38856 -3.33761,6.71917 -4.04285,7.47223 -6.08864,6.50143 -1.64842,-0.78222 -5.18676,-4.67422 -6.13752,-6.75096 -0.7633,-1.66725 -0.77543,-1.81231 -0.28874,-3.45118 0.73957,-2.49042 1.86157,-4.90299 4.0574,-8.72441 2.75749,-4.79891 4.80149,-7.4463 8.41994,-10.90556 12.09114,-11.5592 27.12351,-16.95379 52.07751,-18.68877 4.54274,-0.31585 6.3214,-0.27624 8.62146,0.19197 1.02093,0.20782 0.67633,0.70334 -0.69439,0.9985 -3.44967,0.74284 -3.85282,2.1217 -1.33101,4.5524 0.89407,0.86177 2.98754,2.38119 4.65215,3.37649 1.66462,0.9953 4.92973,3.10194 7.25581,4.68143 4.51425,3.06535 7.12792,4.4524 8.39989,4.45774 1.06846,0.004 2.62346,1.63494 3.05709,3.20544 0.53031,1.92061 -0.12521,3.18225 -2.25598,4.34196 -2.73141,1.48662 -4.91834,2.11783 -15.48813,4.47028 -18.8822,4.20249 -20.58871,4.91654 -32.47152,13.587 -6.1161,4.46269 -8.39685,5.86407 -9.5438,5.86407 -0.34305,0 -1.45001,-0.41176 -2.45992,-0.91502 z"
       id="path198"
       transform="scale(0.26458333)" /><path
       style="fill:#d4aa00;stroke:none;stroke-width:0.338338"
       d="m 205.20875,235.38711 c -1.28975,-0.65259 -1.61767,-1.69585 -1.87179,-5.95515 -0.27274,-4.57128 -0.80586,-6.09232 -2.74857,-7.84199 -1.94047,-1.74765 -6.54081,-4.49608 -13.4874,-8.0579 -6.4582,-3.31141 -7.93559,-4.22889 -7.50424,-4.66024 0.4487,-0.4487 21.75019,-0.58085 24.51369,-0.15208 4.7602,0.73857 6.4393,1.64369 14.06407,7.58119 6.67831,5.20049 8.89833,7.48539 9.195,9.46371 0.78029,5.20337 -3.49732,7.84784 -15.44023,9.54533 -4.29889,0.61101 -5.63506,0.62635 -6.72053,0.0771 z"
       id="path199"
       transform="scale(0.26458333)" /><path
       style="fill:#d4aa00;stroke:none;stroke-width:0.338338"
       d="m 236.76983,229.4093 c -0.94769,-0.40718 -1.79399,-2.03423 -1.79399,-3.44902 0,-0.64704 0.38224,-1.64973 0.93043,-2.44069 0.80117,-1.15598 0.93043,-1.67555 0.93043,-3.73991 0,-2.17546 -0.10382,-2.54162 -1.12134,-3.95493 -1.23807,-1.71966 -4.24907,-4.29853 -8.28165,-7.09311 l -2.63623,-1.8269 2.29789,-0.71355 c 1.26384,-0.39246 4.37681,-1.651 6.91771,-2.79677 2.5409,-1.14578 5.06968,-2.08323 5.61952,-2.08323 0.54983,0 2.12496,0.51692 3.50029,1.14869 3.95348,1.8161 11.3618,3.59007 14.97885,3.58678 1.95859,-0.002 3.59281,-1.05545 3.59281,-2.3165 0,-2.7714 -4.66862,-4.98521 -13.70269,-6.49765 -1.3026,-0.21808 -2.49236,-0.51083 -2.64391,-0.65056 -0.31412,-0.28964 8.58536,-8.87622 12.03247,-11.60942 4.77298,-3.78448 10.4514,-6.28723 19.03184,-8.38822 3.98148,-0.97489 8.32882,-1.39839 8.86375,-0.86346 0.39433,0.39433 -0.57559,1.01854 -5.4338,3.49702 -7.14197,3.64358 -11.38089,6.83323 -11.38089,8.56377 0,0.36141 0.36803,0.89825 0.81786,1.19299 1.04123,0.68224 2.65373,0.29018 6.27467,-1.52562 11.47347,-5.75363 29.11637,-10.09845 44.68985,-11.00551 11.18185,-0.65128 27.28616,3.14914 40.77557,9.62252 8.98184,4.31026 13.36836,8.09834 12.50988,10.80317 -0.33847,1.06642 -4.01114,4.47931 -6.3275,5.87994 -2.32514,1.40594 -4.59658,1.69733 -5.93317,0.76115 -0.39861,-0.27919 -1.91694,-2.42497 -3.37408,-4.76839 -7.70352,-12.38905 -17.65755,-18.17285 -33.52805,-19.48152 -8.77346,-0.72345 -19.14027,0.56963 -26.13128,3.25943 -6.22453,2.39489 -14.18618,6.88607 -20.21547,11.40359 -4.18292,3.13409 -11.72004,10.46036 -14.38793,13.9854 -1.12669,1.48869 -2.79187,4.30535 -3.70041,6.25925 -2.80469,6.03181 -3.08282,6.49481 -5.17264,8.61069 -2.33273,2.36183 -5.93907,4.3819 -10.21643,5.7227 -3.11105,0.9752 -6.66161,1.3894 -7.78236,0.90787 z"
       id="path200"
       transform="scale(0.26458333)" /><path
       style="fill:#d4aa00;stroke:none;stroke-width:0.338338"
       d="m 385.25882,233.36873 c -1.36545,-1.98995 -3.44423,-6.19361 -3.44423,-6.96485 0,-0.35085 0.39253,-1.21634 0.87229,-1.9233 1.10588,-1.6296 9.70077,-10.67917 10.03527,-10.56615 0.13745,0.0464 1.9154,2.66647 3.95101,5.82227 l 3.70109,5.73783 -1.21932,1.36727 c -1.88149,2.1098 -4.64802,4.07441 -8.60095,6.10786 -1.98548,1.02135 -3.76712,1.85701 -3.95922,1.85701 -0.19209,0 -0.79327,-0.64707 -1.33594,-1.43794 z"
       id="path201"
       transform="scale(0.26458333)" /><path
       style="fill:#000000;stroke:#000000;stroke-width:1.59845;stroke-dasharray:none;stroke-opacity:1"
       d="m 311.99749,241.2482 c -0.64785,-0.51556 -1.42343,-2.22029 -1.77617,-3.90399 -0.42089,-2.00907 -0.42228,-7.68432 -0.002,-9.35329 0.5276,-2.09658 1.17559,-2.9656 2.61211,-3.50307 2.57231,-0.96243 4.89985,0.0892 6.28927,2.84161 0.80381,1.59234 1.08529,2.91906 1.10186,5.19343 0.0184,2.52713 -0.42398,4.42342 -1.56547,6.71033 l -0.78812,1.57895 -1.01501,0.30956 c -0.55826,0.17026 -1.77627,0.35033 -2.7067,0.40016 -1.55273,0.0832 -1.7293,0.0607 -2.14948,-0.27369 z"
       id="path202"
       transform="scale(0.26458333)" /><ellipse
       style="fill:#000000;fill-opacity:1;stroke:none;stroke-width:2.00556;stroke-linejoin:round;stroke-dasharray:none;stroke-opacity:1"
       id="path205"
       ry="1.4546777"
       rx="3.7597828"
       cy="80.881332"
       cx="-12.445461"
       transform="rotate(-39.3594)" /></g></svg>
